<svg xmlns="http://www.w3.org/2000/svg" version="1.1" xmlns:xlink="http://www.w3.org/1999/xlink" xmlns:svgjs="http://svgjs.dev/svgjs" viewBox="0 0 800 800"><defs><filter id="bbburst-blur-1" x="-100%" y="-100%" width="400%" height="400%"><feGaussianBlur in="SourceGraphic" stdDeviation="1"></feGaussianBlur></filter><filter id="bbburst-blur-2" x="-100%" y="-100%" width="400%" height="400%"><feGaussianBlur in="SourceGraphic" stdDeviation="2"></feGaussianBlur></filter><filter id="bbburst-blur-3" x="-100%" y="-100%" width="400%" height="400%"><feGaussianBlur in="SourceGraphic" stdDeviation="4"></feGaussianBlur></filter><filter id="bbburst-blur-4" x="-100%" y="-100%" width="400%" height="400%"><feGaussianBlur in="SourceGraphic" stdDeviation="12"></feGaussianBlur></filter><symbol id="bbburst-shape-1" viewBox="0 0 194 167"><path d="m97 0 96.129 166.5H.871L97 0Z"></path></symbol><symbol id="bbburst-shape-4" viewBox="0 0 149 143"><path d="M71.647 2.781c.898-2.764 4.808-2.764 5.706 0l15.445 47.534a3 3 0 0 0 2.853 2.073h49.98c2.906 0 4.115 3.719 1.764 5.427L106.96 87.193a2.999 2.999 0 0 0-1.09 3.354l15.445 47.534c.898 2.764-2.266 5.062-4.617 3.354l-40.435-29.378a3 3 0 0 0-3.526 0l-40.435 29.378c-2.351 1.708-5.515-.59-4.617-3.354L43.13 90.547a3 3 0 0 0-1.09-3.354L1.605 57.815c-2.35-1.708-1.142-5.427 1.764-5.427h49.98a3 3 0 0 0 2.853-2.073L71.647 2.781Z"></path></symbol><symbol id="bbburst-shape-6" viewBox="0 0 133 116"><path d="M59.7487 10.2513c-13.6683-13.66839-35.8291-13.66839-49.4974 0-13.66839 13.6683-13.66839 35.8291 0 49.4974l49.4974-49.4974ZM66.5 66.5 41.7513 91.2487 66.5 115.997l24.7487-24.7483L66.5 66.5Zm56.249-6.7513c13.668-13.6683 13.668-35.8291 0-49.4974-13.669-13.66839-35.8294-13.66839-49.4977 0l49.4977 49.4974Zm-112.4977 0 31.5 31.5 49.4974-49.4974-31.5-31.5-49.4974 49.4974Zm80.9974 31.5 31.5003-31.5-49.4977-49.4974-31.5 31.5 49.4974 49.4974Z"></path></symbol><symbol id="bbburst-shape-8" viewBox="0 0 87 168"><path d="m12 12 31.2546 18.0749c16.4102 9.4902 20.014 31.6325 7.4603 45.8369L36.3296 92.1884c-12.5684 14.2206-8.9394 36.3916 7.5068 45.8636L75 156" stroke-width="14" stroke-linecap="round" stroke-linejoin="round"></path></symbol><symbol id="bbburst-shape-10" viewBox="0 0 145 145"><circle cx="72.5" cy="72.5" r="61.5" fill="none" stroke-width="22"></circle></symbol></defs><use xlink:href="#bbburst-shape-10" width="35.420570787096246" opacity="0.13374999473656946" transform="matrix(1.086149296664805,-0.6186919308949725,0.6186919308949725,1.086149296664805,420.50107998894975,-287.05889265651604)" fill="none" stroke="#ff5c58" filter="url(#bbburst-blur-3)"></use><use xlink:href="#bbburst-shape-8" width="41.18497113921357" opacity="0.35194518776144834" transform="matrix(0.7699593773198504,-0.6380929064620827,0.6380929064620827,0.7699593773198504,366.7372068909807,273.9221448024013)" fill="none" stroke="#2c2891" filter="url(#bbburst-blur-2)"></use><use xlink:href="#bbburst-shape-6" width="28.2239240811248" opacity="0.0367365800725733" transform="matrix(1.6632776432058427,-0.5440656960437933,0.5440656960437933,1.6632776432058427,-85.93780274581442,100.06625727327958)" fill="#ffa6d5" filter="url(#bbburst-blur-4)"></use><use xlink:href="#bbburst-shape-10" width="19.103567203909705" opacity="0.8423346576882118" transform="matrix(0.8933045885036675,0.44945179069427843,-0.44945179069427843,0.8933045885036675,593.9271551500807,105.61213949591234)" fill="none" stroke="#00a19d"></use><use xlink:href="#bbburst-shape-6" width="12.124385884342322" opacity="0.8517778302470427" transform="matrix(0.7993050804571892,-0.6009254432584181,0.6009254432584181,0.7993050804571892,208.14680187926953,123.93770955490203)" fill="#ff5c58"></use><use xlink:href="#bbburst-shape-4" width="19.404819611252677" opacity="0.7277442289781657" transform="matrix(0.993779256437674,-0.11136781166110687,0.11136781166110687,0.993779256437674,468.313863887595,1.7344880846478077)" fill="#ffa6d5" filter="url(#bbburst-blur-1)"></use><use xlink:href="#bbburst-shape-8" width="13.959117744323944" opacity="0.7891331282948515" transform="matrix(0.9922832756125098,0.1239915357583241,-0.1239915357583241,0.9922832756125098,424.49097065964867,-90.91098107674259)" fill="none" stroke="#00a19d"></use><use xlink:href="#bbburst-shape-6" width="17.477709802195694" opacity="0.8941883607698368" transform="matrix(0.7366235504286623,-0.676302997889165,0.676302997889165,0.7366235504286623,108.01110119143806,156.44149777634618)" fill="#00a19d"></use><use xlink:href="#bbburst-shape-10" width="27.79747325018313" opacity="0.44508315893300143" transform="matrix(0.9266357740147702,0.37596029353649546,-0.37596029353649546,0.9266357740147702,297.34371578364755,-44.28225332540319)" fill="none" stroke="#2c2891" filter="url(#bbburst-blur-2)"></use><use xlink:href="#bbburst-shape-10" width="29.26028144332264" opacity="0.5729755692963123" transform="matrix(0.8170788467687953,-0.5765259388466191,0.5765259388466191,0.8170788467687953,211.45582455968108,266.0148000867529)" fill="none" stroke="#00a19d" filter="url(#bbburst-blur-1)"></use><use xlink:href="#bbburst-shape-6" width="24.530946442171008" opacity="0.7209790361526501" transform="matrix(0.9253081787329575,-0.3792159996227708,0.3792159996227708,0.9253081787329575,349.65185810802336,-20.849595414845453)" fill="#ffbd9b" filter="url(#bbburst-blur-1)"></use><use xlink:href="#bbburst-shape-6" width="26.786509466571818" opacity="0.566419711750358" transform="matrix(0.9999525443463054,-0.00974212786561757,0.00974212786561757,0.9999525443463054,402.49830066628505,-193.9553530693774)" fill="#00a19d" filter="url(#bbburst-blur-1)"></use><use xlink:href="#bbburst-shape-6" width="35.48101029431127" opacity="0.19360880566371974" transform="matrix(1.0409369838965405,-0.6920622772239314,0.6920622772239314,1.0409369838965405,460.3145531625009,-76.37021940591006)" fill="#ff5c58" filter="url(#bbburst-blur-3)"></use><use xlink:href="#bbburst-shape-6" width="38.6405560948682" opacity="0.2970945635366008" transform="matrix(0.93636743322969,-0.8280797244147704,0.8280797244147704,0.93636743322969,77.39189848745531,-273.72513491816494)" fill="#00a19d" filter="url(#bbburst-blur-3)"></use><use xlink:href="#bbburst-shape-10" width="15.693745928446406" opacity="0.7489179998632804" transform="matrix(0.8092042185772929,0.5875274739420386,-0.5875274739420386,0.8092042185772929,525.4701651808426,25.690334028415407)" fill="none" stroke="#00a19d" filter="url(#bbburst-blur-1)"></use><use xlink:href="#bbburst-shape-1" width="20.363174263821413" opacity="0.7118425750362316" transform="matrix(0.7702476989093854,0.6377448410805036,-0.6377448410805036,0.7702476989093854,677.3786109185837,211.54734687929954)" fill="#00a19d" filter="url(#bbburst-blur-1)"></use><use xlink:href="#bbburst-shape-8" width="36.910451128221155" opacity="0.2934628197493683" transform="matrix(1.1403187134526662,0.5120285458347575,-0.5120285458347575,1.1403187134526662,868.1705588691142,-207.70839353544375)" fill="none" stroke="#2c2891" filter="url(#bbburst-blur-3)"></use><use xlink:href="#bbburst-shape-4" width="32.13735137519762" opacity="0.13177200661929878" transform="matrix(1.2249108761474268,-0.2491853637269722,0.2491853637269722,1.2249108761474268,127.78896218628947,-445.4824659146363)" fill="#00a19d" filter="url(#bbburst-blur-3)"></use><use xlink:href="#bbburst-shape-6" width="35.715114036354386" opacity="0.36775867858483213" transform="matrix(0.8864561916673044,0.4628125109098709,-0.4628125109098709,0.8864561916673044,353.9572733022069,-148.78996256042362)" fill="#2c2891" filter="url(#bbburst-blur-2)"></use><use xlink:href="#bbburst-shape-8" width="25.044989772156303" opacity="0.42448004428828967" transform="matrix(0.8501792574088206,-0.5264933335492353,0.5264933335492353,0.8501792574088206,240.4269522899574,-185.01284744153622)" fill="none" stroke="#ffa6d5" filter="url(#bbburst-blur-2)"></use><use xlink:href="#bbburst-shape-10" width="21.78175665389896" opacity="0.7369843361680217" transform="matrix(0.8619169650571712,-0.5070494505929725,0.5070494505929725,0.8619169650571712,264.19389409126643,-29.639915886304436)" fill="none" stroke="#ff5c58" filter="url(#bbburst-blur-1)"></use><use xlink:href="#bbburst-shape-6" width="15.732220037147261" opacity="0.8095596898747265" transform="matrix(0.8212445074722085,-0.5705764269111806,0.5705764269111806,0.8212445074722085,116.32015535776353,146.30564329415103)" fill="#ffa6d5"></use><use xlink:href="#bbburst-shape-8" width="24.000975304936574" opacity="0.5158055024551877" transform="matrix(0.8707403153056724,-0.49174312735551085,0.49174312735551085,0.8707403153056724,0.07960121323566227,159.15908314970306)" fill="none" stroke="#ffa6d5" filter="url(#bbburst-blur-2)"></use><use xlink:href="#bbburst-shape-10" width="38.91121504820753" opacity="-0.09246354923439393" transform="matrix(1.729104113312806,-0.2696274565483545,0.2696274565483545,1.729104113312806,-92.21054361264362,58.096983151377685)" fill="none" stroke="#00a19d" filter="url(#bbburst-blur-4)"></use><use xlink:href="#bbburst-shape-10" width="37.1029921259836" opacity="0.34292313273228425" transform="matrix(0.7923314966811554,0.6100908123935322,-0.6100908123935322,0.7923314966811554,391.9864172567302,248.0839101322356)" fill="none" stroke="#ffa6d5" filter="url(#bbburst-blur-2)"></use><use xlink:href="#bbburst-shape-10" width="39.15422614798412" opacity="0.12307647290005796" transform="matrix(0.8915731854144311,0.8761262780272969,-0.8761262780272969,0.8915731854144311,899.8392083510489,383.8286065672661)" fill="none" stroke="#2c2891" filter="url(#bbburst-blur-3)"></use><use xlink:href="#bbburst-shape-8" width="22.628521432496747" opacity="0.7129700419392109" transform="matrix(0.9023318998121581,0.43104192670943453,-0.43104192670943453,0.9023318998121581,433.0443109830521,34.43436590768363)" fill="none" stroke="#00a19d" filter="url(#bbburst-blur-1)"></use><use xlink:href="#bbburst-shape-4" width="23.206837129745942" opacity="0.6456920020567873" transform="matrix(0.7155795553831681,-0.6985312447683549,0.6985312447683549,0.7155795553831681,-37.33098495991399,176.94787961487987)" fill="#ffbd9b" filter="url(#bbburst-blur-1)"></use><use xlink:href="#bbburst-shape-10" width="12.961306647558363" opacity="0.9468760700269531" transform="matrix(0.9870375996656263,-0.1604891798418784,0.1604891798418784,0.9870375996656263,341.11238087980996,27.069357445392654)" fill="none" stroke="#ff5c58"></use><use xlink:href="#bbburst-shape-4" width="34.5394979960864" opacity="0.3654181741794438" transform="matrix(0.9974774511309719,-0.0709840438779,0.0709840438779,0.9974774511309719,82.68453884304627,90.1629506050607)" fill="#ffbd9b" filter="url(#bbburst-blur-2)"></use><use xlink:href="#bbburst-shape-4" width="23.922006196867738" opacity="0.6169152724358802" transform="matrix(0.9955731336130165,-0.09399008260427752,0.09399008260427752,0.9955731336130165,482.343126716341,-108.1442360444102)" fill="#2c2891" filter="url(#bbburst-blur-1)"></use><use xlink:href="#bbburst-shape-10" width="25.196177518006543" opacity="0.6309513541889167" transform="matrix(0.996082110477026,-0.08843319053180126,0.08843319053180126,0.996082110477026,335.7795448608481,167.95143015406586)" fill="none" stroke="#00a19d" filter="url(#bbburst-blur-1)"></use><use xlink:href="#bbburst-shape-10" width="38.6954495354278" opacity="0.16981740034782422" transform="matrix(1.1319308188516943,0.5303137008731086,-0.5303137008731086,1.1319308188516943,317.15318170816226,-317.97443347939407)" fill="none" stroke="#00a19d" filter="url(#bbburst-blur-3)"></use><use xlink:href="#bbburst-shape-10" width="22.2180103320683" opacity="0.703083375173847" transform="matrix(0.967440123033415,0.25309999673072076,-0.25309999673072076,0.967440123033415,434.9234092338959,-111.29637239401546)" fill="none" stroke="#ffbd9b" filter="url(#bbburst-blur-1)"></use><use xlink:href="#bbburst-shape-6" width="35.80010084138756" opacity="0.28916918049091334" transform="matrix(1.0359928261955755,-0.6994418232214197,0.6994418232214197,1.0359928261955755,-69.63025897765118,-272.0106291272544)" fill="#00a19d" filter="url(#bbburst-blur-3)"></use><use xlink:href="#bbburst-shape-8" width="28.42248179596185" opacity="0.22444599392847375" transform="matrix(1.2271622558514526,-0.2378503685378145,0.2378503685378145,1.2271622558514526,120.0806174710919,218.77972506894656)" fill="none" stroke="#2c2891" filter="url(#bbburst-blur-3)"></use><use xlink:href="#bbburst-shape-8" width="24.33585139821182" opacity="0.7500842740419983" transform="matrix(0.8880507169716052,0.4597454992560754,-0.4597454992560754,0.8880507169716052,643.5338965867709,126.85379362646603)" fill="none" stroke="#00a19d" filter="url(#bbburst-blur-1)"></use><use xlink:href="#bbburst-shape-10" width="36.41778337201277" opacity="0.20296255010852116" transform="matrix(1.0061366969802281,-0.7417472258052044,0.7417472258052044,1.0061366969802281,50.62296758535621,368.06919178375927)" fill="none" stroke="#00a19d" filter="url(#bbburst-blur-3)"></use><use xlink:href="#bbburst-shape-1" width="15.94115497925663" opacity="0.8474432753349791" transform="matrix(0.9320419465799419,-0.36235039646103984,0.36235039646103984,0.9320419465799419,292.73265334515884,-21.672383702118054)" fill="#00a19d"></use><use xlink:href="#bbburst-shape-1" width="42.61565389074402" opacity="0.25642203126892327" transform="matrix(1.15003464285152,0.4898166189926357,-0.4898166189926357,1.15003464285152,724.7316957259674,-367.7960499625777)" fill="#2c2891" filter="url(#bbburst-blur-3)"></use><use xlink:href="#bbburst-shape-8" width="19.468052085193396" opacity="0.7719974563910755" transform="matrix(0.9959237001474555,-0.09019968672119273,0.09019968672119273,0.9959237001474555,284.2466491991797,-72.52426271927857)" fill="none" stroke="#2c2891" filter="url(#bbburst-blur-1)"></use><use xlink:href="#bbburst-shape-10" width="38.268881316678" opacity="0.30462798487685583" transform="matrix(1.1049324868309314,-0.584486269766548,0.584486269766548,1.1049324868309314,62.9044959506565,-332.7283175070898)" fill="none" stroke="#ff5c58" filter="url(#bbburst-blur-3)"></use><use xlink:href="#bbburst-shape-6" width="29.133744956769394" opacity="0.4575068960506702" transform="matrix(0.9252037769408965,-0.3794706459455062,0.3794706459455062,0.9252037769408965,392.5746631817308,221.67754083335996)" fill="#ffbd9b" filter="url(#bbburst-blur-2)"></use><use xlink:href="#bbburst-shape-4" width="32.42325548391277" opacity="0.4869505689772492" transform="matrix(0.8114683663252641,0.5843963470568643,-0.5843963470568643,0.8114683663252641,468.02242528136935,239.24353689233897)" fill="#2c2891" filter="url(#bbburst-blur-2)"></use><use xlink:href="#bbburst-shape-8" width="14.406027550050712" opacity="0.8176972851251789" transform="matrix(0.961787237375416,0.2737979364819339,-0.2737979364819339,0.961787237375416,579.2736061625187,-15.838119606511043)" fill="none" stroke="#ff5c58"></use><use xlink:href="#bbburst-shape-10" width="15.616528832434962" opacity="0.803767352365796" transform="matrix(0.7334240573296953,-0.6797713969637497,0.6797713969637497,0.7334240573296953,34.93955806152701,124.3706629558431)" fill="none" stroke="#ff5c58"></use><use xlink:href="#bbburst-shape-6" width="22.79184971480868" opacity="0.1372720585715812" transform="matrix(1.1695519316695149,-0.4411896181100667,0.4411896181100667,1.1695519316695149,80.56014512218434,303.15145772893254)" fill="#2c2891" filter="url(#bbburst-blur-3)"></use><use xlink:href="#bbburst-shape-6" width="26.552834773473123" opacity="0.6010390880082841" transform="matrix(0.8489025413307898,0.5285494066992477,-0.5285494066992477,0.8489025413307898,778.2114798469586,76.35068946049154)" fill="#2c2891" filter="url(#bbburst-blur-1)"></use><use xlink:href="#bbburst-shape-8" width="36.804132956414705" opacity="0.46706231474885074" transform="matrix(0.7606736492985021,0.6491345001329843,-0.6491345001329843,0.7606736492985021,873.3096919257074,159.20594039620147)" fill="none" stroke="#ffa6d5" filter="url(#bbburst-blur-2)"></use><use xlink:href="#bbburst-shape-6" width="49.8511138433299" opacity="-0.08413453514683944" transform="matrix(1.3862833628413311,1.068044211589263,-1.068044211589263,1.3862833628413311,437.86989473044156,-515.9917608725016)" fill="#2c2891" filter="url(#bbburst-blur-4)"></use><use xlink:href="#bbburst-shape-10" width="14.729175301332894" opacity="0.8785373158043841" transform="matrix(0.9984073050853319,0.05641678076818012,-0.05641678076818012,0.9984073050853319,366.408551910394,24.829788104274087)" fill="none" stroke="#ffa6d5"></use><use xlink:href="#bbburst-shape-6" width="23.680913648425594" opacity="0.47479995919716333" transform="matrix(0.9703932185514289,0.24153053924793585,-0.24153053924793585,0.9703932185514289,249.81489843365858,31.05234037199716)" fill="#2c2891" filter="url(#bbburst-blur-2)"></use><use xlink:href="#bbburst-shape-6" width="21.91032515950461" opacity="0.6967433837511122" transform="matrix(0.9416228133065316,-0.3366696859841894,0.3366696859841894,0.9416228133065316,196.24626762576443,150.2013617863899)" fill="#2c2891" filter="url(#bbburst-blur-1)"></use><use xlink:href="#bbburst-shape-8" width="44.73244871297145" opacity="0.15048712729306624" transform="matrix(1.0686758357150064,-0.6484072471516898,0.6484072471516898,1.0686758357150064,-158.6089289377217,252.21953091561022)" fill="none" stroke="#00a19d" filter="url(#bbburst-blur-3)"></use><use xlink:href="#bbburst-shape-4" width="25.129947030321077" opacity="0.4727092709124009" transform="matrix(0.9498483656052106,0.31271086063184655,-0.31271086063184655,0.9498483656052106,692.3861715800779,-139.32631815766018)" fill="#ffbd9b" filter="url(#bbburst-blur-2)"></use><use xlink:href="#bbburst-shape-6" width="12.670507879203559" opacity="0.8457428240717584" transform="matrix(0.8778782781387903,0.4788838364071946,-0.4788838364071946,0.8778782781387903,654.943379104705,53.829674878745266)" fill="#2c2891"></use><use xlink:href="#bbburst-shape-6" width="18.58091632800319" opacity="0.7510022743023452" transform="matrix(0.9155105726252822,0.4022939117254048,-0.4022939117254048,0.9155105726252822,459.63243704715796,92.883055317941)" fill="#ff5c58" filter="url(#bbburst-blur-1)"></use><use xlink:href="#bbburst-shape-6" width="14.151454390729072" opacity="0.9548024517226578" transform="matrix(0.9447622484319425,0.327756455219147,-0.327756455219147,0.9447622484319425,504.6737948006667,14.892304227132286)" fill="#00a19d"></use><use xlink:href="#bbburst-shape-4" width="17.748953511637243" opacity="0.7238288777814245" transform="matrix(0.9895387966477498,0.14426700914943535,-0.14426700914943535,0.9895387966477498,488.36032583546375,-114.93340625453271)" fill="#00a19d" filter="url(#bbburst-blur-1)"></use><use xlink:href="#bbburst-shape-10" width="14.518751647419819" opacity="0.8596509773308562" transform="matrix(0.8174924516333213,0.5759393123607225,-0.5759393123607225,0.8174924516333213,564.8763683751102,47.82579162992471)" fill="none" stroke="#ff5c58"></use><use xlink:href="#bbburst-shape-4" width="31.309341086756426" opacity="0.17686677205032397" transform="matrix(1.0141430041918642,0.7307625928088414,-0.7307625928088414,1.0141430041918642,313.08346625128144,-89.17023964178208)" fill="#00a19d" filter="url(#bbburst-blur-3)"></use><use xlink:href="#bbburst-shape-10" width="31.75383496749045" opacity="0.05843206375115273" transform="matrix(1.431109989719399,1.007186277371441,-1.007186277371441,1.431109989719399,1011.1501029273564,-543.6345313525583)" fill="none" stroke="#2c2891" filter="url(#bbburst-blur-4)"></use><use xlink:href="#bbburst-shape-1" width="26.31409158771988" opacity="0.17245699342227971" transform="matrix(1.1619931939405461,0.46072965743030764,-0.46072965743030764,1.1619931939405461,937.0113297863284,-13.931568440272827)" fill="#2c2891" filter="url(#bbburst-blur-3)"></use><use xlink:href="#bbburst-shape-4" width="23.071890174120806" opacity="0.5887378581041" transform="matrix(0.883605992942472,0.46823119207945557,-0.46823119207945557,0.883605992942472,520.9086670112691,-135.15995082344566)" fill="#ffa6d5" filter="url(#bbburst-blur-1)"></use><use xlink:href="#bbburst-shape-6" width="32.04160884054376" opacity="0.46330185185501527" transform="matrix(0.710812537941866,0.7033815009684596,-0.7033815009684596,0.710812537941866,891.6681698521536,8.611900026713101)" fill="#2c2891" filter="url(#bbburst-blur-2)"></use><use xlink:href="#bbburst-shape-6" width="14.188112514252623" opacity="0.8339874731893864" transform="matrix(0.7544806737218585,0.6563222630539136,-0.6563222630539136,0.7544806737218585,671.7306844357258,20.27766937992135)" fill="#2c2891"></use><use xlink:href="#bbburst-shape-6" width="27.747280423208004" opacity="0.4514849782471704" transform="matrix(0.9870530028832359,0.16039441854125316,-0.16039441854125316,0.9870530028832359,413.61357100966717,-241.1116929798452)" fill="#ffbd9b" filter="url(#bbburst-blur-2)"></use><use xlink:href="#bbburst-shape-8" width="40.850744761852965" opacity="-0.08158666380685475" transform="matrix(1.6635467003808388,0.5432424648828766,-0.5432424648828766,1.6635467003808388,939.5164888627709,55.16820479630758)" fill="none" stroke="#2c2891" filter="url(#bbburst-blur-4)"></use><use xlink:href="#bbburst-shape-6" width="16.444906042027785" opacity="0.867192000890496" transform="matrix(0.9444193091889702,-0.3287433169374372,0.3287433169374372,0.9444193091889702,228.63617027049918,-25.474849171797132)" fill="#ffa6d5"></use><use xlink:href="#bbburst-shape-4" width="44.63682034746328" opacity="0.08332186105727624" transform="matrix(1.7086908728338568,-0.37798875789403086,0.37798875789403086,1.7086908728338568,-147.83347965445262,-478.99400978130507)" fill="#ffa6d5" filter="url(#bbburst-blur-4)"></use><use xlink:href="#bbburst-shape-8" width="23.39096442830459" opacity="0.730138430948712" transform="matrix(0.971450462186188,0.23724249096281572,-0.23724249096281572,0.971450462186188,593.7003073550605,59.74122234621825)" fill="none" stroke="#00a19d" filter="url(#bbburst-blur-1)"></use><use xlink:href="#bbburst-shape-1" width="39.34351598576877" opacity="0.18045617552494053" transform="matrix(0.9120434810233022,-0.8547962849257695,0.8547962849257695,0.9120434810233022,306.2659333149627,307.40589235901354)" fill="#00a19d" filter="url(#bbburst-blur-3)"></use><use xlink:href="#bbburst-shape-10" width="22.373689528297152" opacity="0.45554617457573576" transform="matrix(0.9023816625975531,0.43093773913139216,-0.43093773913139216,0.9023816625975531,805.55126325429,5.135245720918078)" fill="none" stroke="#ffa6d5" filter="url(#bbburst-blur-2)"></use><use xlink:href="#bbburst-shape-10" width="28.19961494459266" opacity="0.6091586387242722" transform="matrix(0.9096114409843357,-0.4154600178481684,0.4154600178481684,0.9096114409843357,389.7704127775467,-7.450591924225307)" fill="none" stroke="#2c2891" filter="url(#bbburst-blur-1)"></use><use xlink:href="#bbburst-shape-8" width="16.814194600663132" opacity="0.6839873159570387" transform="matrix(0.9701695617547399,-0.2424273529216866,0.2424273529216866,0.9701695617547399,292.36876677398664,-128.21337454372895)" fill="none" stroke="#00a19d" filter="url(#bbburst-blur-1)"></use><use xlink:href="#bbburst-shape-10" width="33.72270941338488" opacity="0.28359830859325674" transform="matrix(1.249963054784676,-0.009610498080790012,0.009610498080790012,1.249963054784676,82.32643756109903,-234.82266037962734)" fill="none" stroke="#00a19d" filter="url(#bbburst-blur-3)"></use><use xlink:href="#bbburst-shape-4" width="26.70269331201178" opacity="0.4860429189221199" transform="matrix(0.8931992803629982,0.44966103406791,-0.44966103406791,0.8931992803629982,558.1060763317441,267.8103782994597)" fill="#ffbd9b" filter="url(#bbburst-blur-2)"></use><use xlink:href="#bbburst-shape-6" width="31.062418806336936" opacity="0.30787842191864556" transform="matrix(1.2470309321756121,0.08610374090144887,-0.08610374090144887,1.2470309321756121,103.6659660377445,-105.56548414516215)" fill="#ffa6d5" filter="url(#bbburst-blur-3)"></use><use xlink:href="#bbburst-shape-10" width="30.14475300965215" opacity="0.5956476707389502" transform="matrix(0.7167691410700457,0.6973105466072551,-0.6973105466072551,0.7167691410700457,752.0059389572531,-58.6866659225083)" fill="none" stroke="#00a19d" filter="url(#bbburst-blur-1)"></use><use xlink:href="#bbburst-shape-4" width="31.867914771825006" opacity="0.42026372425352654" transform="matrix(0.9210960367499932,-0.3893354480181008,0.3893354480181008,0.9210960367499932,317.7597268328675,283.3259910210264)" fill="#ffa6d5" filter="url(#bbburst-blur-2)"></use><use xlink:href="#bbburst-shape-4" width="30.648535942141205" opacity="0.1587438318965212" transform="matrix(1.058142170181085,0.6654585995270208,-0.6654585995270208,1.058142170181085,750.8121257807029,-398.3065073740717)" fill="#ff5c58" filter="url(#bbburst-blur-3)"></use><use xlink:href="#bbburst-shape-1" width="43.27847515487825" opacity="0.09305916839332296" transform="matrix(1.4643590652101102,0.9582027594079306,-0.9582027594079306,1.4643590652101102,1107.2264583745714,-6.267150139673163)" fill="#2c2891" filter="url(#bbburst-blur-4)"></use><use xlink:href="#bbburst-shape-4" width="33.10444518256789" opacity="0.33338111221753286" transform="matrix(0.7833907854978263,0.6215294660730888,-0.6215294660730888,0.7833907854978263,935.4581655511711,85.75564411932754)" fill="#00a19d" filter="url(#bbburst-blur-2)"></use><use xlink:href="#bbburst-shape-8" width="35.16253512590614" opacity="0.4772431665550416" transform="matrix(0.8807934213629924,0.4735007379969688,-0.4735007379969688,0.8807934213629924,451.68837712130073,-161.63667542839437)" fill="none" stroke="#ffbd9b" filter="url(#bbburst-blur-2)"></use><use xlink:href="#bbburst-shape-10" width="44.06761296683704" opacity="0.1768821371027568" transform="matrix(1.1333853804742184,-0.5271978559585679,0.5271978559585679,1.1333853804742184,-200.01128771937812,25.984780290782226)" fill="none" stroke="#ffa6d5" filter="url(#bbburst-blur-3)"></use><use xlink:href="#bbburst-shape-1" width="16.8213287755662" opacity="0.7819717730734712" transform="matrix(0.955095578247092,0.29629788459058054,-0.29629788459058054,0.955095578247092,499.2622738198553,112.95973578782525)" fill="#2c2891"></use><use xlink:href="#bbburst-shape-10" width="31.940654295472775" opacity="0.44112046803076976" transform="matrix(0.8246210264522846,0.5656855687860355,-0.5656855687860355,0.8246210264522846,740.8471500189182,-155.52057477500514)" fill="none" stroke="#2c2891" filter="url(#bbburst-blur-2)"></use><use xlink:href="#bbburst-shape-10" width="30.135382684609734" opacity="0.04663177970347765" transform="matrix(1.4467327651171908,-0.98461378536783,0.98461378536783,1.4467327651171908,-377.926710357699,65.93839460017819)" fill="none" stroke="#ffbd9b" filter="url(#bbburst-blur-4)"></use><use xlink:href="#bbburst-shape-4" width="28.792983578710547" opacity="0.6362181007507741" transform="matrix(0.9771018351668955,-0.21277218735888617,0.21277218735888617,0.9771018351668955,189.39852223459584,-107.67435191943684)" fill="#ffa6d5" filter="url(#bbburst-blur-1)"></use><use xlink:href="#bbburst-shape-4" width="37.28003343523495" opacity="-0.08597700980539957" transform="matrix(1.7230191546947369,0.30611271217483627,-0.30611271217483627,1.7230191546947369,839.9703707822447,-636.2648600774921)" fill="#ffa6d5" filter="url(#bbburst-blur-4)"></use><use xlink:href="#bbburst-shape-8" width="16.869134913447674" opacity="0.9301858019999563" transform="matrix(0.9368186306964379,-0.3498154558907468,0.3498154558907468,0.9368186306964379,281.977692636196,18.292295001777063)" fill="none" stroke="#00a19d"></use><use xlink:href="#bbburst-shape-4" width="23.474183135729124" opacity="0.5170208906955007" transform="matrix(0.8670182113177686,0.49827645062087483,-0.49827645062087483,0.8670182113177686,411.8751204923544,-78.41430579545374)" fill="#ffa6d5" filter="url(#bbburst-blur-2)"></use><use xlink:href="#bbburst-shape-10" width="28.796560917763372" opacity="0.6231367938662411" transform="matrix(0.9273150319161247,-0.37428175427396476,0.37428175427396476,0.9273150319161247,78.98004895318513,-27.264645062959517)" fill="none" stroke="#00a19d" filter="url(#bbburst-blur-1)"></use><use xlink:href="#bbburst-shape-8" width="24.922165245842155" opacity="0.3342239383677079" transform="matrix(0.9992003846830219,0.039982386738426086,-0.039982386738426086,0.9992003846830219,223.65912590641952,239.408587571415)" fill="none" stroke="#ffa6d5" filter="url(#bbburst-blur-2)"></use><use xlink:href="#bbburst-shape-4" width="26.570822023108715" opacity="0.6207904407627053" transform="matrix(0.9922616575534031,0.12416441901516283,-0.12416441901516283,0.9922616575534031,536.0628841549969,140.04369918859072)" fill="#00a19d" filter="url(#bbburst-blur-1)"></use><use xlink:href="#bbburst-shape-6" width="22.021073005674708" opacity="0.5910643029405607" transform="matrix(0.9833636125711421,0.18164802633398658,-0.18164802633398658,0.9833636125711421,277.8629442114872,0.2712721337699122)" fill="#00a19d" filter="url(#bbburst-blur-1)"></use><use xlink:href="#bbburst-shape-10" width="32.41690332541913" opacity="0.19049288101774153" transform="matrix(1.1942546399807314,-0.36912850727692836,0.36912850727692836,1.1942546399807314,304.9734636744025,285.3766757305252)" fill="none" stroke="#ffa6d5" filter="url(#bbburst-blur-3)"></use><use xlink:href="#bbburst-shape-8" width="29.60035873044615" opacity="0.2720154866460025" transform="matrix(1.1890346014308983,-0.38561213232996777,0.38561213232996777,1.1890346014308983,535.1655788769053,44.386983241642554)" fill="none" stroke="#ffbd9b" filter="url(#bbburst-blur-3)"></use><use xlink:href="#bbburst-shape-8" width="35.714767010605854" opacity="0.3661333758179999" transform="matrix(0.872057146278884,0.4894040596725053,-0.4894040596725053,0.872057146278884,498.38081870132874,315.6944527725948)" fill="none" stroke="#00a19d" filter="url(#bbburst-blur-2)"></use><use xlink:href="#bbburst-shape-4" width="30.037344724002967" opacity="0.08209772194286735" transform="matrix(1.710581578018956,0.3693381444451391,-0.3693381444451391,1.710581578018956,882.7253741824462,-491.02221317861523)" fill="#ffa6d5" filter="url(#bbburst-blur-4)"></use><use xlink:href="#bbburst-shape-4" width="30.097064590245505" opacity="0.30979275961582464" transform="matrix(1.129511284281829,-0.5354477179706842,0.5354477179706842,1.129511284281829,384.0237357650441,-267.68748466734826)" fill="#2c2891" filter="url(#bbburst-blur-3)"></use><use xlink:href="#bbburst-shape-6" width="45.71849124275329" opacity="0.03110562228135072" transform="matrix(1.7423293332861027,0.16367191075686927,-0.16367191075686927,1.7423293332861027,169.6300256992072,-653.5984305186997)" fill="#ffbd9b" filter="url(#bbburst-blur-4)"></use><use xlink:href="#bbburst-shape-4" width="23.75544945823993" opacity="0.17734152919781854" transform="matrix(0.8949188967309641,-0.8727085242358035,0.8727085242358035,0.8949188967309641,7.114878524526148,-316.28786313773753)" fill="#2c2891" filter="url(#bbburst-blur-3)"></use><use xlink:href="#bbburst-shape-10" width="34.278913155281764" opacity="0.5339025909000258" transform="matrix(0.9300860396146553,0.36734174676168496,-0.36734174676168496,0.9300860396146553,447.23575068962157,213.96300770754868)" fill="none" stroke="#00a19d" filter="url(#bbburst-blur-2)"></use><use xlink:href="#bbburst-shape-8" width="17.47012672070452" opacity="0.9222871511949162" transform="matrix(0.8125709559735774,-0.5828622834840032,0.5828622834840032,0.8125709559735774,162.89669928507521,45.23337273385698)" fill="none" stroke="#ff5c58"></use><use xlink:href="#bbburst-shape-10" width="35.75033838046782" opacity="0.19331701942783508" transform="matrix(1.245399008938875,-0.10715086809759357,0.10715086809759357,1.245399008938875,6.267442492172805,57.994051942005115)" fill="none" stroke="#2c2891" filter="url(#bbburst-blur-3)"></use><use xlink:href="#bbburst-shape-4" width="37.03162638718856" opacity="0.3436472850637463" transform="matrix(0.9770607837868005,0.21296061792247653,-0.21296061792247653,0.9770607837868005,490.6836672816872,299.67992596599373)" fill="#2c2891" filter="url(#bbburst-blur-2)"></use><use xlink:href="#bbburst-shape-10" width="32.05062624737212" opacity="0.021032795375443447" transform="matrix(1.3798669842805682,1.0763210978571636,-1.0763210978571636,1.3798669842805682,1071.7097992937859,184.00095344953263)" fill="none" stroke="#ffa6d5" filter="url(#bbburst-blur-4)"></use><use xlink:href="#bbburst-shape-8" width="26.800090837008014" opacity="0.6309461958061571" transform="matrix(0.947040903408224,-0.32111295095610026,0.32111295095610026,0.947040903408224,141.545538967158,143.0319768214481)" fill="none" stroke="#00a19d" filter="url(#bbburst-blur-1)"></use><use xlink:href="#bbburst-shape-6" width="40.228821547043125" opacity="0.288608063795322" transform="matrix(1.0827015517144358,0.6247058106942444,-0.6247058106942444,1.0827015517144358,793.0967393274827,228.68682222161078)" fill="#ffa6d5" filter="url(#bbburst-blur-3)"></use><use xlink:href="#bbburst-shape-10" width="23.424694020523212" opacity="0.5871246648141911" transform="matrix(0.9454693947291407,-0.3257109510448065,0.3257109510448065,0.9454693947291407,414.42551363471057,126.87359016702203)" fill="none" stroke="#ffa6d5" filter="url(#bbburst-blur-1)"></use></svg>