<svg xmlns="http://www.w3.org/2000/svg" version="1.1" xmlns:xlink="http://www.w3.org/1999/xlink" xmlns:svgjs="http://svgjs.dev/svgjs" viewBox="0 0 800 800"><defs><filter id="bbburst-blur-1" x="-100%" y="-100%" width="400%" height="400%"><feGaussianBlur in="SourceGraphic" stdDeviation="1"></feGaussianBlur></filter><filter id="bbburst-blur-2" x="-100%" y="-100%" width="400%" height="400%"><feGaussianBlur in="SourceGraphic" stdDeviation="2"></feGaussianBlur></filter><filter id="bbburst-blur-3" x="-100%" y="-100%" width="400%" height="400%"><feGaussianBlur in="SourceGraphic" stdDeviation="4"></feGaussianBlur></filter><filter id="bbburst-blur-4" x="-100%" y="-100%" width="400%" height="400%"><feGaussianBlur in="SourceGraphic" stdDeviation="12"></feGaussianBlur></filter><symbol id="bbburst-shape-1" viewBox="0 0 194 167"><path d="m97 0 96.129 166.5H.871L97 0Z"></path></symbol><symbol id="bbburst-shape-4" viewBox="0 0 149 143"><path d="M71.647 2.781c.898-2.764 4.808-2.764 5.706 0l15.445 47.534a3 3 0 0 0 2.853 2.073h49.98c2.906 0 4.115 3.719 1.764 5.427L106.96 87.193a2.999 2.999 0 0 0-1.09 3.354l15.445 47.534c.898 2.764-2.266 5.062-4.617 3.354l-40.435-29.378a3 3 0 0 0-3.526 0l-40.435 29.378c-2.351 1.708-5.515-.59-4.617-3.354L43.13 90.547a3 3 0 0 0-1.09-3.354L1.605 57.815c-2.35-1.708-1.142-5.427 1.764-5.427h49.98a3 3 0 0 0 2.853-2.073L71.647 2.781Z"></path></symbol><symbol id="bbburst-shape-6" viewBox="0 0 133 116"><path d="M59.7487 10.2513c-13.6683-13.66839-35.8291-13.66839-49.4974 0-13.66839 13.6683-13.66839 35.8291 0 49.4974l49.4974-49.4974ZM66.5 66.5 41.7513 91.2487 66.5 115.997l24.7487-24.7483L66.5 66.5Zm56.249-6.7513c13.668-13.6683 13.668-35.8291 0-49.4974-13.669-13.66839-35.8294-13.66839-49.4977 0l49.4977 49.4974Zm-112.4977 0 31.5 31.5 49.4974-49.4974-31.5-31.5-49.4974 49.4974Zm80.9974 31.5 31.5003-31.5-49.4977-49.4974-31.5 31.5 49.4974 49.4974Z"></path></symbol><symbol id="bbburst-shape-8" viewBox="0 0 87 168"><path d="m12 12 31.2546 18.0749c16.4102 9.4902 20.014 31.6325 7.4603 45.8369L36.3296 92.1884c-12.5684 14.2206-8.9394 36.3916 7.5068 45.8636L75 156" stroke-width="14" stroke-linecap="round" stroke-linejoin="round"></path></symbol><symbol id="bbburst-shape-10" viewBox="0 0 145 145"><circle cx="72.5" cy="72.5" r="61.5" fill="none" stroke-width="22"></circle></symbol></defs><use xlink:href="#bbburst-shape-4" width="41.25082335337771" opacity="0.08612993541266534" transform="matrix(1.68655798478065,0.4669284356008234,-0.4669284356008234,1.68655798478065,341.4359645223399,-637.4553158710262)" fill="#ffa6d5" filter="url(#bbburst-blur-4)"></use><use xlink:href="#bbburst-shape-10" width="38.25034873098854" opacity="0.3749176855398413" transform="matrix(0.9967865078153728,0.08010404382572507,-0.08010404382572507,0.9967865078153728,693.2792821538472,23.281039236540437)" fill="none" stroke="#00a19d" filter="url(#bbburst-blur-2)"></use><use xlink:href="#bbburst-shape-4" width="30.22319553285412" opacity="0.08712334412994871" transform="matrix(1.6563929968563689,-0.5646788821668272,0.5646788821668272,1.6563929968563689,513.1146439338122,-63.57105770701435)" fill="#ffbd9b" filter="url(#bbburst-blur-4)"></use><use xlink:href="#bbburst-shape-1" width="44.020118258530744" opacity="0.20188559417141383" transform="matrix(1.2470525208452876,0.08579050211657112,-0.08579050211657112,1.2470525208452876,48.39514413446511,-78.49981971702539)" fill="#ffa6d5" filter="url(#bbburst-blur-3)"></use><use xlink:href="#bbburst-shape-1" width="28.387118923780573" opacity="0.5792091487462128" transform="matrix(0.7649663717904005,-0.6440702213499944,0.6440702213499944,0.7649663717904005,257.13413754969696,244.89135205589122)" fill="#00a19d" filter="url(#bbburst-blur-1)"></use><use xlink:href="#bbburst-shape-1" width="14.300917193680458" opacity="0.9025505391751604" transform="matrix(0.7687655120362609,0.6395307557136136,-0.6395307557136136,0.7687655120362609,615.412139921304,114.49840103922577)" fill="#ffa6d5"></use><use xlink:href="#bbburst-shape-4" width="37.77802044089339" opacity="0.46332474053379635" transform="matrix(0.7848498428268211,0.6196859883963121,-0.6196859883963121,0.7848498428268211,395.71481797741865,119.1760580731912)" fill="#ff5c58" filter="url(#bbburst-blur-2)"></use><use xlink:href="#bbburst-shape-1" width="38.097627689452764" opacity="0.13097304721656033" transform="matrix(1.2490800477770478,-0.04794824548706331,0.04794824548706331,1.2490800477770478,657.0587335983314,152.1654897914559)" fill="#ff5c58" filter="url(#bbburst-blur-3)"></use><use xlink:href="#bbburst-shape-10" width="23.499114772713106" opacity="0.5936524104469181" transform="matrix(0.9214976084224425,0.3883840337497394,-0.3883840337497394,0.9214976084224425,674.8240927072906,-101.45496856724719)" fill="none" stroke="#ffa6d5" filter="url(#bbburst-blur-1)"></use><use xlink:href="#bbburst-shape-10" width="19.007851321988568" opacity="0.7609404763837441" transform="matrix(0.7145160093282634,0.6996190909442173,-0.6996190909442173,0.7145160093282634,612.5499890675071,18.59684230997385)" fill="none" stroke="#2c2891" filter="url(#bbburst-blur-1)"></use><use xlink:href="#bbburst-shape-6" width="28.829506294525345" opacity="0.42079947880322244" transform="matrix(0.9889355545128259,0.1483457752024292,-0.1483457752024292,0.9889355545128259,652.1550199551092,160.5738977945062)" fill="#ff5c58" filter="url(#bbburst-blur-2)"></use><use xlink:href="#bbburst-shape-8" width="31.0037800033777" opacity="0.5041421457309025" transform="matrix(0.9754036798985247,-0.22042609019899684,0.22042609019899684,0.9754036798985247,351.51554655128245,229.5560996320446)" fill="none" stroke="#ffa6d5" filter="url(#bbburst-blur-2)"></use><use xlink:href="#bbburst-shape-10" width="14.80609987937138" opacity="0.8898139662380166" transform="matrix(0.9420659955133484,-0.33542757802161094,0.33542757802161094,0.9420659955133484,283.20888773554327,-17.53376066420998)" fill="none" stroke="#2c2891"></use><use xlink:href="#bbburst-shape-4" width="16.425590083429352" opacity="0.7538329040490741" transform="matrix(0.9647995465958629,0.2629863777620761,-0.2629863777620761,0.9647995465958629,461.5307501007403,116.78733489376077)" fill="#ffa6d5" filter="url(#bbburst-blur-1)"></use><use xlink:href="#bbburst-shape-6" width="12.923037656357238" opacity="0.7840587123675231" transform="matrix(0.8993007314390994,-0.437330760904262,0.437330760904262,0.8993007314390994,202.87525050456603,-52.677159045154156)" fill="#ffa6d5"></use><use xlink:href="#bbburst-shape-4" width="21.003755058405453" opacity="0.7350920618525192" transform="matrix(0.8178287617620995,0.5754616550515517,-0.5754616550515517,0.8178287617620995,637.2664043786366,-51.332023807008)" fill="#ffbd9b" filter="url(#bbburst-blur-1)"></use><use xlink:href="#bbburst-shape-10" width="40.653620653823616" opacity="0.07496307220021137" transform="matrix(1.4343442385703238,1.0025749873601064,-1.0025749873601064,1.4343442385703238,417.19103326418,-412.01046104704847)" fill="none" stroke="#2c2891" filter="url(#bbburst-blur-4)"></use><use xlink:href="#bbburst-shape-4" width="34.98630332315412" opacity="0.18951028359127897" transform="matrix(1.24949321161303,0.03559092767765586,-0.03559092767765586,1.24949321161303,402.48814503799406,264.20001739519705)" fill="#00a19d" filter="url(#bbburst-blur-3)"></use><use xlink:href="#bbburst-shape-10" width="45.226418922311055" opacity="0.25978614490946117" transform="matrix(1.1726492612168358,-0.4328899515669185,0.4328899515669185,1.1726492612168358,435.5387862330615,-295.127333317285)" fill="none" stroke="#ffa6d5" filter="url(#bbburst-blur-3)"></use><use xlink:href="#bbburst-shape-1" width="13.22905885319092" opacity="0.8593112048133658" transform="matrix(0.8324720902648606,0.55406698054482,-0.55406698054482,0.8324720902648606,612.4007932019455,0.15929613660949826)" fill="#2c2891"></use><use xlink:href="#bbburst-shape-10" width="25.8879253052885" opacity="0.5251948513918157" transform="matrix(0.8484965866784893,-0.5292008526022545,0.5292008526022545,0.8484965866784893,-9.188179997116606,171.66279152915092)" fill="none" stroke="#2c2891" filter="url(#bbburst-blur-2)"></use><use xlink:href="#bbburst-shape-10" width="32.313309625653794" opacity="0.2668238288470204" transform="matrix(1.2482517024567263,0.06608848094701764,-0.06608848094701764,1.2482517024567263,200.2855672853009,157.3613263404635)" fill="none" stroke="#ffbd9b" filter="url(#bbburst-blur-3)"></use><use xlink:href="#bbburst-shape-10" width="12.796795855885216" opacity="0.8610149440886601" transform="matrix(0.9991775116592907,-0.04054997157025004,0.04054997157025004,0.9991775116592907,427.5157285337101,37.988440075488995)" fill="none" stroke="#ffbd9b"></use><use xlink:href="#bbburst-shape-1" width="17.462593483298487" opacity="0.8105211202811944" transform="matrix(0.9190048774020558,-0.3942461608072199,0.3942461608072199,0.9190048774020558,273.2571205816596,-39.977498264141275)" fill="#ffa6d5"></use><use xlink:href="#bbburst-shape-10" width="33.52016615187992" opacity="0.09425471440973121" transform="matrix(1.4848659445572399,0.9261064337829296,-0.9261064337829296,1.4848659445572399,417.5794906912174,32.517941355559174)" fill="none" stroke="#ff5c58" filter="url(#bbburst-blur-4)"></use><use xlink:href="#bbburst-shape-8" width="35.45297356782991" opacity="0.17413982025729413" transform="matrix(0.9642923842764352,0.7953868226381853,-0.7953868226381853,0.9642923842764352,581.1915958515457,351.95826227421674)" fill="none" stroke="#00a19d" filter="url(#bbburst-blur-3)"></use><use xlink:href="#bbburst-shape-8" width="22.262936417499827" opacity="0.6618331042627122" transform="matrix(0.860684189174839,0.5091392015003853,-0.5091392015003853,0.860684189174839,743.1941335625258,80.40275477368175)" fill="none" stroke="#ffbd9b" filter="url(#bbburst-blur-1)"></use><use xlink:href="#bbburst-shape-6" width="17.562213098758182" opacity="0.7268346206757765" transform="matrix(0.9461276504419017,-0.32379386817740474,0.32379386817740474,0.9461276504419017,317.8153217862382,134.00311142815679)" fill="#ffa6d5" filter="url(#bbburst-blur-1)"></use><use xlink:href="#bbburst-shape-10" width="20.905090396781965" opacity="0.7452066837690369" transform="matrix(0.9296475743669754,0.36844997960862863,-0.36844997960862863,0.9296475743669754,541.8658127286917,138.86965950898644)" fill="none" stroke="#00a19d" filter="url(#bbburst-blur-1)"></use><use xlink:href="#bbburst-shape-6" width="34.246576266615236" opacity="0.18135128832839287" transform="matrix(1.2167637893975662,0.28633176703061586,-0.28633176703061586,1.2167637893975662,620.6763234528556,254.20843889194055)" fill="#2c2891" filter="url(#bbburst-blur-3)"></use><use xlink:href="#bbburst-shape-4" width="25.97079678450301" opacity="0.44005946228324055" transform="matrix(0.9845480568374154,-0.17511460184025054,0.17511460184025054,0.9845480568374154,374.3674554429381,-236.91841676913808)" fill="#ffbd9b" filter="url(#bbburst-blur-2)"></use><use xlink:href="#bbburst-shape-4" width="44.84487479400738" opacity="0.2103979967790074" transform="matrix(1.0720972472288957,-0.6427343871960047,0.6427343871960047,1.0720972472288957,471.34057200050006,-59.481842469996764)" fill="#ffa6d5" filter="url(#bbburst-blur-3)"></use><use xlink:href="#bbburst-shape-6" width="16.199493017663293" opacity="0.8074235009393363" transform="matrix(0.8752873301078149,-0.48360323587909654,0.48360323587909654,0.8752873301078149,252.2586209405256,122.52733538163818)" fill="#00a19d"></use><use xlink:href="#bbburst-shape-6" width="33.506093908727564" opacity="0.3705019993122285" transform="matrix(0.9011530480159747,0.43350107733605264,-0.43350107733605264,0.9011530480159747,277.08286600812767,-1.7723878954880092)" fill="#ffbd9b" filter="url(#bbburst-blur-2)"></use><use xlink:href="#bbburst-shape-10" width="26.163914598387336" opacity="0.349171196991529" transform="matrix(0.9602276007990423,-0.2792184712079683,0.2792184712079683,0.9602276007990423,331.76311670826567,307.02856683388796)" fill="none" stroke="#ff5c58" filter="url(#bbburst-blur-2)"></use><use xlink:href="#bbburst-shape-4" width="31.547858736619695" opacity="0.3137128914782713" transform="matrix(1.2431879557748133,-0.13032155085188551,0.13032155085188551,1.2431879557748133,33.51867794138005,-2.988228167797331)" fill="#2c2891" filter="url(#bbburst-blur-3)"></use><use xlink:href="#bbburst-shape-10" width="39.959652876955886" opacity="0.29808895350631326" transform="matrix(1.2331095886665229,-0.20479439039846564,0.20479439039846564,1.2331095886665229,297.3810423246081,-404.98751855320165)" fill="none" stroke="#ffa6d5" filter="url(#bbburst-blur-3)"></use><use xlink:href="#bbburst-shape-8" width="39.53958824250227" opacity="0.3328713098804633" transform="matrix(1.0745511962308523,0.6386233057748868,-0.6386233057748868,1.0745511962308523,588.7382000230779,254.29890611517112)" fill="none" stroke="#ffa6d5" filter="url(#bbburst-blur-3)"></use><use xlink:href="#bbburst-shape-6" width="18.878061856602336" opacity="0.6359970269849615" transform="matrix(0.9202450439594382,0.3913426364045856,-0.3913426364045856,0.9202450439594382,551.6836028499047,191.96476442014415)" fill="#ffa6d5" filter="url(#bbburst-blur-1)"></use><use xlink:href="#bbburst-shape-10" width="36.05942387280636" opacity="0.27544193480538937" transform="matrix(1.125471125233472,-0.5438885421349695,0.5438885421349695,1.125471125233472,299.8853838267328,-335.9140966080193)" fill="none" stroke="#ff5c58" filter="url(#bbburst-blur-3)"></use><use xlink:href="#bbburst-shape-6" width="11.51133924235779" opacity="0.8581981799283163" transform="matrix(0.997596398396518,0.06929232213092268,-0.06929232213092268,0.997596398396518,475.99164704185995,-33.40833224438592)" fill="#ffa6d5"></use><use xlink:href="#bbburst-shape-1" width="42.3561219447469" opacity="0.06317077092401102" transform="matrix(1.4338415646919023,-1.0032937592559208,1.0032937592559208,1.4338415646919023,200.4832064426701,199.70985792091722)" fill="#00a19d" filter="url(#bbburst-blur-4)"></use><use xlink:href="#bbburst-shape-10" width="24.24815624130653" opacity="0.6016564169510761" transform="matrix(0.9973505297795077,-0.07274558920330139,0.07274558920330139,0.9973505297795077,514.0255059385292,91.60946576294225)" fill="none" stroke="#ffa6d5" filter="url(#bbburst-blur-1)"></use><use xlink:href="#bbburst-shape-6" width="37.89084888438293" opacity="0.2939789045354849" transform="matrix(1.0746693117538828,0.6384245220654012,-0.6384245220654012,1.0746693117538828,920.4309086778039,-181.51152913037242)" fill="#2c2891" filter="url(#bbburst-blur-3)"></use><use xlink:href="#bbburst-shape-6" width="33.069878421357394" opacity="0.06413242953427001" transform="matrix(1.7395200296246986,-0.19123301632952389,0.19123301632952389,1.7395200296246986,632.2713145956437,-544.5074960710866)" fill="#ff5c58" filter="url(#bbburst-blur-4)"></use><use xlink:href="#bbburst-shape-10" width="17.9363012171871" opacity="0.7671998844583684" transform="matrix(0.8983254598058094,-0.4393305910868046,0.4393305910868046,0.8983254598058094,113.2845147146462,25.097873285836727)" fill="none" stroke="#ffbd9b" filter="url(#bbburst-blur-1)"></use><use xlink:href="#bbburst-shape-6" width="28.87931405307043" opacity="0.12401166784568884" transform="matrix(1.2421332007385475,0.14001825460636008,-0.14001825460636008,1.2421332007385475,801.2081374224273,-252.2406939965484)" fill="#00a19d" filter="url(#bbburst-blur-3)"></use><use xlink:href="#bbburst-shape-6" width="37.366370547824616" opacity="0.4572482316308649" transform="matrix(0.9862494351664235,0.16526358229782687,-0.16526358229782687,0.9862494351664235,650.9921917889102,-132.92405845982023)" fill="#00a19d" filter="url(#bbburst-blur-2)"></use><use xlink:href="#bbburst-shape-10" width="30.982763446255063" opacity="0.4461762144469542" transform="matrix(0.8484845240266726,0.5292201928188596,-0.5292201928188596,0.8484845240266726,411.79555470835885,-112.62558480886668)" fill="none" stroke="#00a19d" filter="url(#bbburst-blur-2)"></use><use xlink:href="#bbburst-shape-4" width="29.16713789416916" opacity="0.4940537067828209" transform="matrix(0.999945800892,-0.01041130531953618,0.01041130531953618,0.999945800892,598.5984330996175,68.00283029199932)" fill="#ffa6d5" filter="url(#bbburst-blur-2)"></use><use xlink:href="#bbburst-shape-1" width="25.765530805231755" opacity="0.6155022848551952" transform="matrix(0.973616211237348,-0.22819174659884567,0.22819174659884567,0.973616211237348,365.7810245496871,171.9367823224643)" fill="#ffa6d5" filter="url(#bbburst-blur-1)"></use><use xlink:href="#bbburst-shape-1" width="14.737110742778894" opacity="0.9797705511948465" transform="matrix(0.8963393379093882,-0.4433686855385251,0.4433686855385251,0.8963393379093882,209.15778145011257,50.68802200472095)" fill="#2c2891"></use><use xlink:href="#bbburst-shape-6" width="38.42131633632756" opacity="0.49744291606875" transform="matrix(0.9939345368038286,-0.10997334471843052,0.10997334471843052,0.9939345368038286,126.4463912747305,-78.20388555804385)" fill="#ff5c58" filter="url(#bbburst-blur-2)"></use><use xlink:href="#bbburst-shape-4" width="19.377109073297692" opacity="0.6937760666741537" transform="matrix(0.9662421473254519,0.25763562007591206,-0.25763562007591206,0.9662421473254519,560.0307682571715,-109.75560036558704)" fill="#ff5c58" filter="url(#bbburst-blur-1)"></use><use xlink:href="#bbburst-shape-8" width="27.700276639691445" opacity="0.6543976924840738" transform="matrix(0.8185197153013157,0.5744784379444132,-0.5744784379444132,0.8185197153013157,471.90760125371065,12.570874834376866)" fill="none" stroke="#2c2891" filter="url(#bbburst-blur-1)"></use><use xlink:href="#bbburst-shape-4" width="50.84674586971644" opacity="-0.08343793810725852" transform="matrix(1.7207827570254781,0.3184441915372206,-0.3184441915372206,1.7207827570254781,831.7697922134029,44.97704559435351)" fill="#00a19d" filter="url(#bbburst-blur-4)"></use><use xlink:href="#bbburst-shape-8" width="28.383839547082065" opacity="0.1713639665900576" transform="matrix(1.2432555094029556,0.12967551171750769,-0.12967551171750769,1.2432555094029556,510.78442102880024,-464.08493104662375)" fill="none" stroke="#2c2891" filter="url(#bbburst-blur-3)"></use><use xlink:href="#bbburst-shape-6" width="19.468974015824568" opacity="0.8543031492971829" transform="matrix(0.8786933194573452,-0.47738668848327964,0.47738668848327964,0.8786933194573452,135.28270415874485,59.97872409548734)" fill="#2c2891"></use><use xlink:href="#bbburst-shape-1" width="11.557252376416951" opacity="0.8662263157483605" transform="matrix(0.960108507872276,-0.2796277044773492,0.2796277044773492,0.960108507872276,248.73168343738098,-32.176874611370806)" fill="#ff5c58"></use><use xlink:href="#bbburst-shape-1" width="29.890255600654335" opacity="0.6142201178995879" transform="matrix(0.919076513591153,-0.39407913185695465,0.39407913185695465,0.919076513591153,387.1616960240516,-32.49144068383538)" fill="#00a19d" filter="url(#bbburst-blur-1)"></use><use xlink:href="#bbburst-shape-4" width="10.676494421145101" opacity="0.9136114492554153" transform="matrix(0.99934924524574,-0.036070570092109074,0.036070570092109074,0.99934924524574,381.8994931267376,39.30185167957626)" fill="#2c2891"></use><use xlink:href="#bbburst-shape-4" width="23.123638611049557" opacity="0.5244370271775693" transform="matrix(0.8505297005248809,-0.5259270182497343,0.5259270182497343,0.8505297005248809,154.70870523280416,-146.6398727905072)" fill="#ff5c58" filter="url(#bbburst-blur-2)"></use><use xlink:href="#bbburst-shape-10" width="24.189963030057786" opacity="0.5622779488695568" transform="matrix(0.9809974425221898,0.19402066324214806,-0.19402066324214806,0.9809974425221898,662.3097056780526,-7.422028247277694)" fill="none" stroke="#ff5c58" filter="url(#bbburst-blur-1)"></use><use xlink:href="#bbburst-shape-1" width="33.100881730311634" opacity="0.41548009209498926" transform="matrix(0.9448061502424234,-0.32762988029801426,0.32762988029801426,0.9448061502424234,387.04721461343183,254.0468897299943)" fill="#2c2891" filter="url(#bbburst-blur-2)"></use><use xlink:href="#bbburst-shape-4" width="38.42428174790659" opacity="0.08155855553350344" transform="matrix(1.373698704767327,-1.0841825808048053,1.0841825808048053,1.373698704767327,159.9569859312054,-478.49175007238307)" fill="#ffbd9b" filter="url(#bbburst-blur-4)"></use><use xlink:href="#bbburst-shape-6" width="21.814173325811797" opacity="0.7878315517879806" transform="matrix(0.8637362500913532,-0.5039441340844512,0.5039441340844512,0.8637362500913532,282.47352108268353,79.46071949209545)" fill="#ffbd9b"></use><use xlink:href="#bbburst-shape-10" width="22.43168356354659" opacity="0.6040392471803036" transform="matrix(0.7496149061581935,0.6618742270744818,-0.6618742270744818,0.7496149061581935,590.3647766430405,258.24773206600196)" fill="none" stroke="#ffa6d5" filter="url(#bbburst-blur-1)"></use><use xlink:href="#bbburst-shape-10" width="28.813706189154843" opacity="0.4334842221639593" transform="matrix(0.8642459603569485,0.5030694981875723,-0.5030694981875723,0.8642459603569485,738.0475856199122,-159.60659688287848)" fill="none" stroke="#ffbd9b" filter="url(#bbburst-blur-2)"></use><use xlink:href="#bbburst-shape-10" width="34.4257009853771" opacity="0.5193757734959672" transform="matrix(0.764933005023247,-0.6441098491919721,0.6441098491919721,0.764933005023247,-13.112765161183859,267.9864980909826)" fill="none" stroke="#ff5c58" filter="url(#bbburst-blur-2)"></use><use xlink:href="#bbburst-shape-10" width="20.39260741661768" opacity="0.7416961944802241" transform="matrix(0.8819987701685847,0.4712517049529943,-0.4712517049529943,0.8819987701685847,464.7146599321707,60.65919773693622)" fill="none" stroke="#2c2891" filter="url(#bbburst-blur-1)"></use><use xlink:href="#bbburst-shape-10" width="21.992910009079623" opacity="0.7020179365195995" transform="matrix(0.8929679650728286,-0.4501202210006694,0.4501202210006694,0.8929679650728286,130.37935358616028,155.55906756417693)" fill="none" stroke="#2c2891" filter="url(#bbburst-blur-1)"></use><use xlink:href="#bbburst-shape-4" width="10.2921609694468" opacity="0.9441624429233604" transform="matrix(0.9849311080728798,-0.17294713744473852,0.17294713744473852,0.9849311080728798,348.3396108435488,-4.085038662390332)" fill="#00a19d"></use><use xlink:href="#bbburst-shape-10" width="45.564739468180264" opacity="-0.08499363234705037" transform="matrix(1.6110933350836787,0.6832849081085793,-0.6832849081085793,1.6110933350836787,289.4665943271936,83.32815873624111)" fill="none" stroke="#00a19d" filter="url(#bbburst-blur-4)"></use><use xlink:href="#bbburst-shape-4" width="41.970024927229574" opacity="0.06328382767684049" transform="matrix(1.4728482809361743,-0.9451020798534706,0.9451020798534706,1.4728482809361743,-244.2182014130548,180.48161494463204)" fill="#00a19d" filter="url(#bbburst-blur-4)"></use><use xlink:href="#bbburst-shape-4" width="30.784534531779006" opacity="0.6685257918649332" transform="matrix(0.9630377054214209,-0.2693666236500814,0.2693666236500814,0.9630377054214209,229.4568708625991,-122.2778762512255)" fill="#00a19d" filter="url(#bbburst-blur-1)"></use><use xlink:href="#bbburst-shape-4" width="33.19954018379967" opacity="0.18104648125401301" transform="matrix(0.9452491829487747,-0.8179266361567361,0.8179266361567361,0.9452491829487747,-29.127700830159483,-322.7780020972479)" fill="#00a19d" filter="url(#bbburst-blur-3)"></use><use xlink:href="#bbburst-shape-6" width="28.954400996802924" opacity="0.49765887660706376" transform="matrix(0.7137145763279436,-0.7004366520514357,0.7004366520514357,0.7137145763279436,85.50431859518591,349.4318407965558)" fill="#ffa6d5" filter="url(#bbburst-blur-2)"></use><use xlink:href="#bbburst-shape-10" width="19.204678863767953" opacity="0.6354336924806598" transform="matrix(0.9912266753938599,-0.13217290943168145,0.13217290943168145,0.9912266753938599,179.02261073387194,46.768542434563244)" fill="none" stroke="#ffa6d5" filter="url(#bbburst-blur-1)"></use><use xlink:href="#bbburst-shape-6" width="37.10950515565355" opacity="-0.08442743804286268" transform="matrix(1.6066188573333944,-0.6937404754378528,0.6937404754378528,1.6066188573333944,433.0714656926267,-579.4595520527392)" fill="#00a19d" filter="url(#bbburst-blur-4)"></use><use xlink:href="#bbburst-shape-4" width="40.22083628767005" opacity="0.27004542099106843" transform="matrix(1.2023326522081197,0.3419008532223758,-0.3419008532223758,1.2023326522081197,722.1671667079404,165.15238899691053)" fill="#2c2891" filter="url(#bbburst-blur-3)"></use><use xlink:href="#bbburst-shape-6" width="15.911618880483958" opacity="0.7454041775810623" transform="matrix(0.7559324985546638,0.6546495685700122,-0.6546495685700122,0.7559324985546638,560.7151453450941,28.57501000614883)" fill="#ffbd9b" filter="url(#bbburst-blur-1)"></use><use xlink:href="#bbburst-shape-6" width="38.694242024595496" opacity="0.3805986915885996" transform="matrix(0.8499786024041537,-0.5268172125653088,0.5268172125653088,0.8499786024041537,97.33531940598684,-198.1109877939325)" fill="#2c2891" filter="url(#bbburst-blur-2)"></use><use xlink:href="#bbburst-shape-10" width="22.749627554456513" opacity="0.7099074837205335" transform="matrix(0.9700660456121047,0.24284123857058118,-0.24284123857058118,0.9700660456121047,615.0226375139653,-11.29809302321911)" fill="none" stroke="#ffbd9b" filter="url(#bbburst-blur-1)"></use><use xlink:href="#bbburst-shape-1" width="16.760334484307812" opacity="0.7996238950417445" transform="matrix(0.8198635473740796,-0.5725589608827987,0.5725589608827987,0.8198635473740796,89.89315218913035,128.06744020051963)" fill="#ff5c58"></use><use xlink:href="#bbburst-shape-8" width="12.922636490460924" opacity="0.9338883045433138" transform="matrix(0.9571031782304138,-0.2897473144331812,0.2897473144331812,0.9571031782304138,301.5621318968393,37.0858784770993)" fill="none" stroke="#ff5c58"></use><use xlink:href="#bbburst-shape-10" width="47.734126802713824" opacity="-0.07276762474535614" transform="matrix(1.7315511196117532,-0.2534378033587015,0.2534378033587015,1.7315511196117532,-82.9078472401788,-629.0672215302664)" fill="none" stroke="#00a19d" filter="url(#bbburst-blur-4)"></use><use xlink:href="#bbburst-shape-10" width="42.23046717326836" opacity="0.2961840529626807" transform="matrix(0.9237117183575161,0.8421737714800935,-0.8421737714800935,0.9237117183575161,1005.4577828865455,144.3091165169514)" fill="none" stroke="#2c2891" filter="url(#bbburst-blur-3)"></use><use xlink:href="#bbburst-shape-1" width="40.48378302859444" opacity="0.1893736031483454" transform="matrix(1.184509206410686,0.39929680680958,-0.39929680680958,1.184509206410686,276.5663975132428,-338.54336582016896)" fill="#2c2891" filter="url(#bbburst-blur-3)"></use><use xlink:href="#bbburst-shape-6" width="28.654152273398978" opacity="0.62655751155182" transform="matrix(0.8788551770739673,-0.47708864766444137,0.47708864766444137,0.8788551770739673,73.30820745411148,-58.92661566316053)" fill="#ffa6d5" filter="url(#bbburst-blur-1)"></use><use xlink:href="#bbburst-shape-10" width="21.6160534272082" opacity="0.7278088436385646" transform="matrix(0.8986827241362558,-0.43859931753143244,0.43859931753143244,0.8986827241362558,313.72126105138807,117.5636359716421)" fill="none" stroke="#2c2891" filter="url(#bbburst-blur-1)"></use><use xlink:href="#bbburst-shape-4" width="26.84422959048294" opacity="0.5724275067207714" transform="matrix(0.975348518491013,-0.22067004209313537,0.22067004209313537,0.975348518491013,106.50299776652794,2.760446762251945)" fill="#00a19d" filter="url(#bbburst-blur-1)"></use><use xlink:href="#bbburst-shape-6" width="37.51401254932436" opacity="0.4240305688568088" transform="matrix(0.7813142393120813,-0.6241378529204776,0.6241378529204776,0.7813142393120813,387.96216488426137,39.715037932448524)" fill="#ffbd9b" filter="url(#bbburst-blur-2)"></use><use xlink:href="#bbburst-shape-10" width="31.56757608759771" opacity="0.5277509857119166" transform="matrix(0.803786973463752,0.5949172222166556,-0.5949172222166556,0.803786973463752,520.5694982731255,-115.82933994968317)" fill="none" stroke="#ffa6d5" filter="url(#bbburst-blur-2)"></use><use xlink:href="#bbburst-shape-4" width="36.22142605189556" opacity="0.40698068539680243" transform="matrix(0.828348542855183,-0.5602130769177875,0.5602130769177875,0.828348542855183,44.380939698657386,318.89537091628387)" fill="#00a19d" filter="url(#bbburst-blur-2)"></use><use xlink:href="#bbburst-shape-8" width="14.884436478458696" opacity="0.8725495877563618" transform="matrix(0.9068396112690206,-0.4214758823864677,0.4214758823864677,0.9068396112690206,281.98027501223237,42.35132407365734)" fill="none" stroke="#00a19d"></use><use xlink:href="#bbburst-shape-10" width="28.421476397508187" opacity="0.6206655277715907" transform="matrix(0.9669801341443064,-0.25485176116766217,0.25485176116766217,0.9669801341443064,304.2088762308513,-152.70805319006246)" fill="none" stroke="#2c2891" filter="url(#bbburst-blur-1)"></use><use xlink:href="#bbburst-shape-10" width="46.2897132978516" opacity="0.30729471028222366" transform="matrix(1.24474061153255,0.11454610426188044,-0.11454610426188044,1.24474061153255,143.00963209031062,-249.1812217703384)" fill="none" stroke="#ffa6d5" filter="url(#bbburst-blur-3)"></use><use xlink:href="#bbburst-shape-4" width="27.783746233555" opacity="0.18645223819667622" transform="matrix(1.2499875736504251,0.00557366302561226,-0.00557366302561226,1.2499875736504251,744.9813494514357,-34.142584718130536)" fill="#00a19d" filter="url(#bbburst-blur-3)"></use><use xlink:href="#bbburst-shape-1" width="12.912076487528509" opacity="0.9247881011147752" transform="matrix(0.8407585008738282,0.5414103279476602,-0.5414103279476602,0.8407585008738282,579.3461704887171,48.57573049559073)" fill="#00a19d"></use><use xlink:href="#bbburst-shape-6" width="13.920768846588512" opacity="0.789564139913867" transform="matrix(0.7704306142416291,0.6375238573098784,-0.6375238573098784,0.7704306142416291,738.0931997803656,53.55825413324044)" fill="#ffa6d5"></use><use xlink:href="#bbburst-shape-4" width="17.10953274714724" opacity="0.8454996221692936" transform="matrix(0.8582334650405856,0.5132595050112856,-0.5132595050112856,0.8582334650405856,567.0149156812633,114.59093202126581)" fill="#ffa6d5"></use><use xlink:href="#bbburst-shape-4" width="17.635240607325393" opacity="0.6733693712870299" transform="matrix(0.953714028445793,-0.3007150677064539,0.3007150677064539,0.953714028445793,151.43413645783792,106.23522740129613)" fill="#00a19d" filter="url(#bbburst-blur-1)"></use><use xlink:href="#bbburst-shape-8" width="14.523420420056919" opacity="0.8375941127336118" transform="matrix(0.7909870444662371,-0.6118328983362753,0.6118328983362753,0.7909870444662371,161.49748619862214,160.14309182370175)" fill="none" stroke="#2c2891"></use><use xlink:href="#bbburst-shape-10" width="27.12791234784096" opacity="0.5647855368955015" transform="matrix(0.8385033206733066,0.5448964867016836,-0.5448964867016836,0.8385033206733066,690.2980144499495,-119.84598582752685)" fill="none" stroke="#ffbd9b" filter="url(#bbburst-blur-1)"></use><use xlink:href="#bbburst-shape-10" width="16.467851792795077" opacity="0.7339131150118243" transform="matrix(0.8937105225818868,0.4486440703123254,-0.4486440703123254,0.8937105225818868,663.6757641365318,-38.32183970263935)" fill="none" stroke="#ffa6d5" filter="url(#bbburst-blur-1)"></use><use xlink:href="#bbburst-shape-1" width="42.5035469168437" opacity="0.1788915770573284" transform="matrix(1.2467276251506678,-0.09038931732332073,0.09038931732332073,1.2467276251506678,-19.50609364508722,-192.51504812286612)" fill="#00a19d" filter="url(#bbburst-blur-3)"></use><use xlink:href="#bbburst-shape-8" width="32.50074935996461" opacity="0.13718388434561357" transform="matrix(1.0420228752538716,-0.6904261926141376,0.6904261926141376,1.0420228752538716,-252.4921550033633,141.35066984975032)" fill="none" stroke="#2c2891" filter="url(#bbburst-blur-3)"></use><use xlink:href="#bbburst-shape-6" width="12.551496986280082" opacity="0.8417407757245535" transform="matrix(0.9136822109080506,-0.40642935114257767,0.40642935114257767,0.9136822109080506,169.43219544884718,2.505575318971978)" fill="#ff5c58"></use><use xlink:href="#bbburst-shape-4" width="43.474056940294524" opacity="0.3472972103880808" transform="matrix(0.9607201961809305,-0.27751883656803256,0.27751883656803256,0.9607201961809305,27.958522729610365,190.87291740348553)" fill="#2c2891" filter="url(#bbburst-blur-2)"></use><use xlink:href="#bbburst-shape-4" width="32.22920296654241" opacity="0.3215232864801687" transform="matrix(0.8941301249099205,0.8735166396403505,-0.8735166396403505,0.8941301249099205,573.1828109333177,-230.6251669118547)" fill="#ffbd9b" filter="url(#bbburst-blur-3)"></use><use xlink:href="#bbburst-shape-8" width="15.381790893758865" opacity="0.9355632678207073" transform="matrix(0.8586539438181965,-0.5125557577136924,0.5125557577136924,0.8586539438181965,184.69729715041015,31.717935849186972)" fill="none" stroke="#ffa6d5"></use></svg>