<svg xmlns="http://www.w3.org/2000/svg" version="1.1" xmlns:xlink="http://www.w3.org/1999/xlink" xmlns:svgjs="http://svgjs.dev/svgjs" viewBox="0 0 800 800"><defs><radialGradient id="ccclaymoji-grad-dark" r="93%" cx="20%" cy="20%">
      <stop offset="70%" stop-color="hsl(166, 100%, 73%)" stop-opacity="0"></stop>
      <stop offset="97%" stop-color="#38cbad" stop-opacity="1"></stop>
    </radialGradient><radialGradient id="ccclaymoji-grad-light" r="65%" cx="28%" cy="20%">
    <stop offset="0%" stop-color="#acffff" stop-opacity="0.75"></stop>
    <stop offset="100%" stop-color="hsl(166, 100%, 73%)" stop-opacity="0"></stop>
  </radialGradient><filter id="ccclaymoji-blur" x="-100%" y="-100%" width="400%" height="400%" filterUnits="objectBoundingBox" primitiveUnits="userSpaceOnUse" color-interpolation-filters="sRGB">
	<feGaussianBlur stdDeviation="30" x="0%" y="0%" width="100%" height="100%" in="SourceGraphic" edgeMode="none" result="blur"></feGaussianBlur></filter><filter id="inner-blur" x="-100%" y="-100%" width="400%" height="400%" filterUnits="objectBoundingBox" primitiveUnits="userSpaceOnUse" color-interpolation-filters="sRGB">
	<feGaussianBlur stdDeviation="2" x="0%" y="0%" width="100%" height="100%" in="SourceGraphic" edgeMode="none" result="blur"></feGaussianBlur></filter><filter id="eye-shadow" x="-100%" y="-100%" width="400%" height="400%" filterUnits="objectBoundingBox" primitiveUnits="userSpaceOnUse" color-interpolation-filters="sRGB">
	<feDropShadow stdDeviation="10" dx="10" dy="10" flood-color="#000000" flood-opacity="0.2" x="0%" y="0%" width="100%" height="100%" result="dropShadow"></feDropShadow>
</filter><linearGradient gradientTransform="rotate(-25)" id="eye-light" x1="50%" y1="0%" x2="50%" y2="100%">
      <stop offset="20%" stop-color="#555555" stop-opacity="1"></stop>
      <stop offset="100%" stop-color="black" stop-opacity="0"></stop>
    </linearGradient><linearGradient id="mouth-light" x1="50%" y1="0%" x2="50%" y2="100%">
    <stop offset="0%" stop-color="#ff9667" stop-opacity="1"></stop>
    <stop offset="100%" stop-color="hsl(3, 100%, 51%)" stop-opacity="0"></stop>
  </linearGradient><filter id="mouth-shadow" x="-100%" y="-100%" width="400%" height="400%" filterUnits="objectBoundingBox" primitiveUnits="userSpaceOnUse" color-interpolation-filters="sRGB">
	<feDropShadow stdDeviation="10" dx="10" dy="10" flood-color="#c20000" flood-opacity="0.2" x="0%" y="0%" width="100%" height="100%" result="dropShadow"></feDropShadow>
</filter></defs><g stroke-linecap="round"><path d="M573 449.9999990243741C573 550.4329146253971 500.432915601023 631.8491038837092 400 631.8491038837092C299.56752685422 631.8491038837092 227 550.4329146253971 227 449.9999990243741C227 349.56752587859404 299.56752685422 268.15089416503906 400 268.15089416503906C500.432915601023 268.15089416503906 573 349.56752587859404 573 449.9999990243741Z " fill="#38cbad" opacity="0.25" filter="url(#ccclaymoji-blur)"></path><circle r="173" cx="400" cy="400" fill="hsl(166, 100%, 73%)"></circle><circle r="173" cx="400" cy="400" fill="url(#ccclaymoji-grad-dark)"></circle><circle r="173" cx="400" cy="400" fill="url(#ccclaymoji-grad-light)"></circle><ellipse rx="23.5" ry="25" cx="350" cy="375" fill="black" filter="url(#eye-shadow)"></ellipse><ellipse rx="23.5" ry="25" cx="350" cy="375" fill="url(#eye-light)" filter="url(#inner-blur)"></ellipse><ellipse rx="23.5" ry="25" cx="450" cy="375" fill="black" filter="url(#eye-shadow)"></ellipse><ellipse rx="23.5" ry="25" cx="450" cy="375" fill="url(#eye-light)" filter="url(#inner-blur)"></ellipse><path d="M350 512.5Q400 562.5 450 512.5 " stroke-width="12" stroke="hsl(3, 100%, 51%)" fill="none" filter="url(#mouth-shadow)"></path><path d="M350 512.5Q400 562.5 450 512.5 " stroke-width="4" stroke="url(#mouth-light)" fill="none" filter="url(#inner-blur)"></path></g></svg>