<svg xmlns="http://www.w3.org/2000/svg" version="1.1" xmlns:xlink="http://www.w3.org/1999/xlink" xmlns:svgjs="http://svgjs.dev/svgjs" viewBox="0 0 800 800"><defs><linearGradient x1="50%" y1="0%" x2="50%" y2="100%" id="ssscribble-grad"><stop stop-color="hsl(179, 75%, 49%)" stop-opacity="1" offset="0%"></stop><stop stop-color="hsl(0, 0%, 0%)" stop-opacity="1" offset="100%"></stop></linearGradient></defs><g fill="none" stroke-width="1.5" stroke="url(#ssscribble-grad)" stroke-linecap="round"><path d="M1102.98 179.56C1058.98 212.42 941.57 241.38 799.42 269.18 681.22 300.61 624.32 337.78 637.28 386.81 711.37 447.3 811.45 526.38 902.52 624.11 967.55 726.72 983.56 832.84 953.07 924.63 884.54 982.07 792.45 993.9 694.58 950.47 593.53 867.92 505.17 761.33 433.07 666.43 369.42 625.86 319.31 656.3 278.54 758.72 241.12 901.17 207.05 1033.61 174.19 1100.57 141.32 1073.96 111.24 964.79 86.68 820.82 65.48 693.77 55.81 626.22 62.52 631.12 77.67 701.5 111.91 802.23 162.31 896.34 209.54 964.93 254.45 983.24 279.91 953.27 267.33 883.72 212.36 789.79 113.11 690.13 -12.17 587.67 -141.72 498.8 -239.9 426.95 -276.94 364.24 -238.74 315.35 -133.22 275.65 -3.76 239.49 106.98 206.14 150.98 173.28 103.97 140.42 -8.54 109.61 -137.99 83.79 -241.78 61.52 -277.28 50.62 -237.55 56.38 -137.4 71.28 -7.19 106.03 117.46 157.84 241.45 230.24 228.08 238.38 157.37 106.95 107.06 -21.36 73.33 -151.56 58.86 -246.04 53.05 -275.04 63.51 -226.21 85.29 -111.86 110.45 19.42 140.86 121.95 173.72 148.59 206.58 81.65 240.34 -44.12 277.15 -173.89 317.34 -263.65 366.66 -275.4 429.42 -210.76 500.83 -91.77 588.68 44.28 689.64 161.04 787.97 238.7 881.19 265.84 951.51 251.48 984.08 202.77 970.23 143.83 906.87 91.87 816.42 44.77 715.69 19.81 639.62 16.26 623.98 24.17 678.18 46.78 794.66 77.32 936.79 111.49 1055.97 146.7 1102.98 179.56Q1102.98 179.56 1102.98 179.56" opacity="0.99"></path><path d="M1068.98 194.49C1030.96 225 927.17 261.14 795.77 304.1 675.92 349.61 601.42 406.24 585.77 475.89 628.33 550.34 706.93 637.21 794.17 730.84 875.64 816.08 925.09 890.25 936.41 938.06 913.76 950.28 860.41 920.61 789.59 849.87 705.05 761.03 620.85 668.51 544.73 602.38 469.93 592.23 407 644.85 356.15 753.73 307.06 888.15 267.41 1007.11 236.9 1066.57 206.38 1044.96 186.46 949.85 178 818.32 171.3 691.52 178.72 607.25 200.65 582.91 223.88 619.86 257.84 696.88 295.34 785.56 319.13 870.1 328.67 922.6 311.34 935.92 260.02 913.99 174.39 860.1 61.15 788.04 -57.85 701.88 -163.82 616.26 -228.74 539.18 -235.46 463.74 -178.33 400.63 -70.25 349.82 49.36 300.95 146.96 261.47 184.98 230.95 144.14 200.44 44.73 180.33 -75.18 171.66 -182.02 164.91 -236.88 172.51 -227.6 195.07 -160.43 219.27 -53.14 254.64 66.08 293.78 178.51 318.81 262.61 328.9 312.1 310.85 327.5 257.55 316.35 168.88 291.43 52.57 253.17 -67.88 218.92 -172.27 195.71 -231.59 174.05 -229.64 166.99 -162.75 173.99 -47.73 182.82 72.01 202.96 160.95 233.47 182.59 263.98 123.14 303.43 10.38 352.15 -112.26 402.69 -209.37 465.26 -244.65 539.8 -212.14 615.89 -123.66 700.39 -3.77 785.68 116.83 857.63 219.35 912.58 285.21 937.18 312.99 927.67 305.18 879.76 274.82 799.1 236.61 711.64 190.02 631.72 153.4 586.91 131.83 600.01 115.04 672.23 113.92 790.85 125.95 922.54 140.54 1028.14 163.98 1068.98 194.49Q1068.98 194.49 1068.98 194.49" opacity="0.08"></path><path d="M1034.98 300.83C1002.55 329 912.03 368.31 792.79 418.12 675.37 468.68 588.94 530.48 549.1 601.5 560.23 670.7 610.93 743.47 682.05 811.63 763.2 864.12 829.75 897.03 870.93 900.36 888.48 875.13 876.51 818.29 842.15 737.39 790.22 656.66 728.77 587.5 666.37 552.62 599.59 569.89 539.13 639.38 488.47 750.22 437.74 874.69 397.61 980.23 369.45 1032.57 341.28 1015.5 326.41 933.95 324.02 816.08 321.56 693.7 330.78 598.82 348.75 550.33 362.33 554.52 377.4 601.56 385.92 672.08 376.87 754.88 348.4 824.12 293.94 867.92 215.83 887.55 115.89 876.59 5.41 842.33 -95.02 789.77 -170.99 727.31 -202.76 663.89 -183.57 596 -113.17 534.72 -6.62 483.54 101.74 432.34 186.55 391.99 218.98 363.82 183.92 335.65 97.3 321 -11.62 319.07 -151.69 322.15 -129.96 368.89 10.24 386.09 120.77 376.95 219.98 347.47 296.85 290.94 349.7 210.23 376.55 107.6 384.21 -4.52 366.46 -140.52 321.31 -134.28 319.05 16.64 321.45 123.64 336.36 199.5 364.52 216.59 392.69 164.27 432.79 64.45 483.5 -49.16 534.2 -149.14 594.81 -202.6 661.97 -199.24 724.92 -143.72 787.26 -49.31 840.44 60.74 876.19 170.97 889.78 261.22 873.85 323.36 833.9 356.95 768.09 364.48 686.88 355.4 614.85 330.65 562.4 304.27 548.96 283.87 586.52 261.67 671.15 251.11 787.79 253.66 907.6 256.98 999.92 272.67 1034.98 300.83Q1034.98 300.83 1034.98 300.83" opacity="0.38"></path><path d="M1000.98 451.29C973.72 477.11 896.02 513.81 789.94 559.55 678.59 604.45 585.95 656.29 527.62 710.88 510.38 759.57 530.92 803.64 577.63 835.61 644.24 851.31 710.87 845.68 765.65 814.59 809.39 766.48 830.67 699.77 830.96 625.01 815.92 563.55 786.27 522.96 748.69 518.4 704.13 558.37 659.09 638.98 618.22 747.64 575.99 860.65 540.9 952.98 515.08 998.57 489.26 985.59 473.93 916.95 467.47 813.55 459.65 699.19 457.72 599.77 457.53 533.45 450.37 508.71 437.5 523.98 412.74 568.05 372.67 634.31 314.32 702.31 236.73 759.24 148.11 805.42 50.87 828.69 -42.62 830.29 -116.2 816 -159.9 786.49 -161.59 748.67 -122.19 703.59 -44.24 657.99 57.13 616.67 153.25 573.95 225.72 538.6 252.98 512.78 223.29 486.95 149.04 471.89 52.15 465.91 -48.88 458.54 -125.51 457.17 -163.01 457.5 -159.15 450.58 -113.52 437.57 -38.54 412.08 55.74 370.7 153.05 310.36 241.17 230.34 317.77 139.57 374.91 40.97 413.74 -52.18 437.18 -123.14 448.94 -161.57 455.24 -155.76 454.65 -108.39 456.04 -23.67 463.54 80.72 469.71 174.16 484.9 237.58 510.72 250.58 536.54 205 571.77 117.92 614.29 14.87 655.48 -83.82 701.06 -149.75 746.4 -170.81 784.85 -147.33 815.61 -83.58 831.96 4.75 832.92 106.4 812.85 203.72 770.09 285.67 715.81 350.6 649.11 393.3 581.71 417.4 533.61 425.22 511.13 423.67 526.2 419.73 582.63 409.88 673.95 405 784.96 408.8 891.81 411.75 971.29 425.47 1000.98 451.29Q1000.98 451.29 1000.98 451.29" opacity="0.22"></path><path d="M966.98 578.93C944.46 602.4 878.95 631.76 786.63 664.98 684.38 696.59 591 728.83 520.65 757.47 480.53 779.46 472.63 791.71 491.42 789.46 533.92 775.36 586.36 743.59 638.31 694.79 690.45 640.88 729.76 580.74 753.69 524.8 768.28 489.21 768.15 478.05 756.74 499.94 738.96 556.64 715.15 642.62 689.16 745.43 661.43 845.85 634.89 925.34 611.42 964.58 587.94 955.23 568.65 898.71 552.12 810.15 533.84 706.73 514.95 608.44 492.06 531.3 462.79 483.86 424.26 469.78 373.5 484.3 313.39 524.4 240.39 576.31 157.48 629.05 74.76 682.85 -5.5 724.08 -72.44 749.78 -115.67 765.98 -128.82 767.01 -105.9 756.31 -52.75 738.99 27.25 715.36 120.44 689.4 203.71 661.63 264.46 635.04 286.98 611.57 262.27 588.1 199.82 568.85 115.64 552.36 22.42 534.05 -56.76 514.98 -108.47 491.62 -129.55 461.65 -114.53 421.97 -69.71 369.59 -1.5 307.71 79.48 232.79 162.42 148.22 245.1 64.72 317.53 -15.02 376.88 -79.56 426.69 -118.51 464.29 -125.49 492.75 -95.26 514.82 -35.32 533.06 49.6 550.91 143.96 567.02 223.47 586.1 275.23 609.57 284.58 633.04 245.34 659.8 170.61 687.95 79.24 714.37 -14.5 738.82 -87.12 757.44 -126.61 769.66 -131.3 770.72 -99.09 757.09 -39.06 733.92 41.31 695.19 129.28 643.27 213.95 591.1 293.52 537.93 358.98 494.16 409.26 473.77 447.69 479.79 474.09 518.07 492.77 586.98 504.81 679.52 515.28 781.79 527.93 875.03 538.97 942.25 555.45 966.98 578.92Q966.98 578.93 966.98 578.93" opacity="0.37"></path><path d="M932.98 626.85C914.97 647.98 861.09 668.23 782.83 686.29 692.07 702.85 602.81 714.45 526.94 718.41 470.82 717.6 439.34 705.79 431.26 681.47 445.66 651.82 474.78 611.03 510.99 562.53 554.91 518.14 595.13 476.79 627.22 446.92 656.7 438.77 675.02 454.01 682.43 496.23 686.09 563.05 681.01 648.95 669.11 742.86 655.89 830 638.23 897.18 617.11 930.47 595.99 924.26 572.39 878.96 545.77 805.18 517.83 714.87 484.48 622.65 444.22 541.7 400.19 479.32 347.09 441.77 285.05 428.66 220.4 439.2 149.86 466.04 78.24 501.33 14.35 545.37 -39.81 586.44 -76.21 619.71 -90.12 650.63 -77.59 670.27 -36.96 678.74 23.42 683.4 100.66 679.02 183.27 667.55 253.37 654.72 302.97 637.24 320.98 616.12 300.59 595 249.06 571.22 177.74 544.22 94.75 515.85 17.99 481.8 -41.22 440.54 -80.15 395.45 -90.75 341.04 -74.96 277.56 -36.82 211.73 18.7 140.33 83.5 68.6 155.64 5.62 226.29 -46.27 290.74 -78.8 352.33 -87.7 404.83 -69.11 448.25 -22.22 487.82 43.24 520.58 123.42 548.09 205.58 574.27 271.22 597.63 312.25 618.75 318.48 639.87 285.2 657.76 222.31 671.43 143.32 683.75 57.56 689.43 -16.31 686.47 -67.65 679.66 -94.4 661.94 -90.7 632.92 -60.55 601.03 -8.69 560.7 57.69 516.25 129.78 479.14 205.96 448.65 277.08 432.51 339.29 438.71 396.18 468.27 442.77 522.68 480.19 597.38 512.84 686.17 539.67 777.31 562.95 856.78 584.73 912.59 605.73 932.98 626.85Q932.98 626.85 932.98 626.85" opacity="0.63"></path><path d="M898.97 574C884.65 592.78 841.22 605.44 776.64 611.68 698.91 617.09 617.91 614.68 542.91 603.78 478.79 591.02 431.33 569.26 401.83 539.46 390.21 510.14 393.61 476.46 407.41 442.67 431.93 417.91 459.22 401.4 484.82 398.78 512.89 415.02 534.85 450.55 548.95 505.67 562.27 576.01 567.29 657.04 563.98 739.72 560.13 813.31 548.82 868.83 530.04 896.59 511.27 893.03 485.9 857.9 454.34 798.41 422.24 722.55 383.06 640.39 337.2 562.04 290.55 492.99 237.67 440.07 180.66 405.37 126.12 388.98 71.87 388.67 22.74 399.91 -15.66 422.74 -41.32 449.29 -49.26 474.81 -39.31 503.28 -8.69 525.92 41.66 540.75 102.89 554.93 173.21 560.67 243.69 557.87 301.02 554.54 340.65 543.51 354.97 524.74 338.87 505.96 297.74 480.32 239.35 448.24 168.33 415.62 98.04 375.72 37.34 329 -12.04 281.62 -41.43 228.07 -50.04 170.66 -40.71 116.19 -13.79 62.69 25.65 15.24 75.65 -20.6 130.49 -42.55 185.39 -45.72 242.58 -30.57 295.47 5.5 342.03 60.79 387.71 125.38 426.69 196.85 458.64 265.47 490.01 317.71 515.27 349.03 534.05 352.59 552.83 324.83 564.24 273.11 568.29 206.77 571.75 131.34 566.94 61 553.8 4.42 539.79 -36.94 517.82 -55.63 489.57 -52.31 463.61 -30.13 435.72 8.62 410.33 58 395.49 116.4 390.83 177.03 401.04 235.3 429.2 294.04 475.42 346.73 538.57 392.02 613.02 435.46 694 472.03 772.27 502.03 837.91 531.21 882.86 555.21 898.97 573.99Q898.97 574 898.97 574" opacity="0.27"></path><path d="M864.97 443.62C820.96 476.48 703.51 477.82 566.5 451.85 445.51 428.23 371.34 388.72 343.74 356.65 355.57 363.23 381.99 416.55 399.35 525.09 421.88 663.36 419.97 795.64 387.11 862.58 354.25 835.94 293.54 726.64 214.06 588.47 139.76 460.03 62.06 376.76 7.15 341.98 -8.3 348.53 31 372.59 127.9 389.36 240.83 412.09 344.96 410.59 388.97 377.73 341.96 344.87 236.08 283.76 123.06 204.08 27.54 130.36 -9.6 55.02 7.94 5.39 64.8 -2.89 143.75 45.52 218.65 149.88 298.47 263.96 359.25 359.94 392.11 386.58 424.98 319.64 426.81 200.68 403.93 86.5 385.98 2.04 358.31 -16.41 344.52 20.06 370.04 95.21 442.05 186 561.65 266.57 698.76 349.49 817.96 410.76 864.97 443.62Q864.97 443.62 864.97 443.62" opacity="0.71"></path><path d="M830.98 293.89C798.53 322.06 707.76 326.72 593.57 315.45 478.12 311.15 387.05 306.33 329.06 318.63 298.95 361.33 289.11 440.01 283.91 551.06 286.69 670.73 277.93 776.24 249.76 828.58 221.6 811.51 176.69 729.59 125.1 617.09 81.49 497.79 47.36 400.01 40.56 335.39 61.63 298.91 122.83 284.75 217.63 277.2 311.18 278.23 390.53 268.77 422.98 240.61 387.94 212.44 306.83 168.23 212.69 118.38 118.41 77.12 58.55 47.33 39.04 46.89 47.6 74.59 83.14 142.48 127.65 241.13 180.03 332.98 225.31 403.5 253.48 420.59 281.66 368.26 290.04 274.17 286.47 175.14 290.77 84.72 299.19 35.92 327.53 30.13 383.95 54.74 473.68 103.53 588.6 156.64 703.39 216.71 795.92 265.72 830.98 293.88Q830.98 293.89 830.98 293.89" opacity="0.32"></path><path d="M796.98 191.31C774.46 214.78 708.5 229.6 620.29 241.3 522.08 259.64 432.03 286.9 361.31 331.76 304.94 394.32 266.54 479.79 239.91 579.62 219.7 675.69 200.17 755.35 176.7 794.58 153.23 785.23 128.03 728.1 107.57 643.64 93.53 544.99 95.29 451.44 120.9 376.17 160.85 314.42 226.01 271.52 307.01 241.88 378.02 218.86 434.46 197.9 456.98 174.43 432.27 150.95 374.15 127.2 302.25 109.54 221.1 98.5 156.48 104.77 117.41 135.75 93 180.26 92.36 248.9 107.22 330.35 128.51 397.6 154.16 445.21 177.63 454.59 201.1 415.36 220.18 345.23 239.56 266.35 265.37 183.72 302.64 123.14 357.81 91.35 427.63 77.25 517.16 86.62 615.51 108.95 704.62 137.93 772.25 167.83 796.98 191.3Q796.98 191.31 796.98 191.31" opacity="0.58"></path><path d="M762.98 181.51C748.73 200.29 704.76 223.51 642.92 252.52 569.2 285.33 494.47 329.96 428.43 387.57 366.31 451.72 316.22 527.59 278.77 606.5 244.5 676.89 218.14 732.76 199.36 760.53 180.58 756.99 171.16 721.09 172.9 664.07 177.8 592.48 198.59 517.38 236.09 449.55 277.52 384.52 332.34 331.44 392.29 291.72 440.37 255.04 476.73 227.32 490.98 208.54 474.8 189.76 436.84 181.71 387.67 185.84 327.1 193.03 272.17 216.8 230.99 257.22 194.03 300.44 173.87 355.62 169.5 413.45 168.36 456.7 178.12 484.99 196.9 488.53 215.68 460.76 241.7 412.5 275.38 355.88 312.29 290.73 361.76 234.78 423.33 195.24 489.11 162.24 563.96 146.91 638.29 146.65 701.23 150.17 746.8 162.73 762.98 181.51Q762.98 181.51 762.98 181.51" opacity="0.89"></path><path d="M728.98 268.98C696.53 297.15 605.21 368.01 509.95 468.1 409.79 568.73 335.94 674.24 307.77 726.58 279.6 709.51 302.45 626.76 365.7 533.6 424.05 432.15 492.53 356.07 524.98 327.9 489.94 299.73 419.75 324.82 360.82 389.35 297.62 445.59 275.13 505.51 303.3 522.58 331.46 470.24 404.96 387.56 505.07 323.85 600.92 260.68 693.94 240.81 728.98 268.98Q728.98 268.98 728.98 268.98" opacity="0.42"></path><path d="M694.98 414.68C637.84 452.24 493.38 609.62 455.83 692.57 418.27 654.67 501.84 516.83 558.98 479.27 498.5 441.72 413.39 518.67 450.95 556.57 488.5 473.62 634.5 377.13 694.98 414.68Q694.98 414.68 694.98 414.68" opacity="0.08"></path></g></svg>