<svg xmlns="http://www.w3.org/2000/svg" version="1.1" xmlns:xlink="http://www.w3.org/1999/xlink" xmlns:svgjs="http://svgjs.dev/svgjs" viewBox="0 0 800 800"><defs><linearGradient x1="50%" y1="0%" x2="50%" y2="100%" id="wwwhirl-grad"><stop stop-color="hsla(174, 75%, 49%, 1.00)" stop-opacity="1" offset="45%"></stop><stop stop-color="hsla(0, 0%, 0%, 1.00)" stop-opacity="1" offset="100%"></stop></linearGradient></defs><g stroke-width="2" stroke="url(#wwwhirl-grad)" fill="none" stroke-linecap="round"><path d="M94.75000211715704 417.8480554827604C106.3125024379384 409.86993026142125 127.12500301534489 381.113991963638 150.2500036569076 379.5530544203325C173.37500429847034 377.992116877027 182.62500455509547 412.95711784706987 205.7500051966582 410.3555552748941C228.87500583822091 407.7539927027183 238.12500609484604 358.74055384292603 261.25000673640875 367.0655540738886C284.37500737797154 375.3905543048512 293.6250076345966 447.1936812969035 316.7500082761594 450.3155563835145C339.8750089177221 453.43743147012543 349.12500917434716 383.43805452811506 372.2500098159099 382.0505544896213C395.3750104574727 380.6630544511275 404.62501071409775 450.4196188864015 427.7500113556605 443.6555561987444C450.8750119972232 436.89149351108733 460.12501225384835 349.5830535888672 483.2500128954111 349.5830535888672C506.37501353697377 349.5830535888672 515.6250137935988 440.5336811121334 538.7500144351616 443.6555561987444C561.8750150767244 446.77743128535536 571.1250153333494 365.60867903347014 594.2500159749122 364.56805400459984C617.3750166164751 363.52742897572955 626.6250168731002 440.0480560986606 649.7500175146628 438.66055606016687C672.8750181562256 437.2730560216731 693.6875187336319 374.73149178656666 705.2500190544133 357.9080538198298 " transform="rotate(99, 400, 400)"></path><path d="M104.00000205300077 417.30720531661615C115.2121235761827 409.5708414656206 135.3939423179102 381.6862952374671 157.81818536427406 380.17265883183757C180.24242841063793 378.659022426208 189.21212562918348 412.56447791231017 211.63636867554732 410.0417505695942C234.0606117219112 407.5190232268783 243.03030894045676 359.9908400901101 265.45455198682066 368.06356758680107C287.8787950331845 376.1362950834921 296.84849225173 445.76356974245186 319.27273529809395 448.790842553711C341.6969783444578 451.81811536497014 350.6666755630033 383.9399316636267 373.0909186093672 382.59447708084485C395.51516165573105 381.249022498063 404.48485887427665 448.89175164741965 426.9091019206405 442.33266055635823C449.3333449670044 435.77356946529676 458.30304218554994 351.11083984375 480.7272852319138 351.11083984375C503.1515282782776 351.11083984375 512.1212254968232 439.3053877450991 534.5454685431871 442.33266055635823C556.969711589551 445.3599333676174 565.9394088080965 366.6508402748802 588.3636518544604 365.6417493377938C610.7878949008243 364.63265840070744 619.7575921193699 438.83447864112543 642.1818351657337 437.4890240583436C664.6060782120975 436.1435694755618 684.7878969538249 375.4972041566707 696.000018477007 359.183567340441 " transform="rotate(96, 400, 400)"></path><path d="M113.2500019888445 416.7663551504719C124.11174471442699 409.27175266981993 143.6628816204755 382.25859851129627 165.3863670716405 380.79226324334263C187.1098525228055 379.325927975389 195.79924670327148 412.17183797755047 217.52273215443648 409.72794586429444C239.2462176056015 407.28405375103836 247.9356117860675 361.24112633729413 269.65909723723246 369.0615810997135C291.3825826883975 376.88203586213297 300.0719768688635 444.33345818800024 321.7954623200285 447.2661287239075C343.5189477711935 450.1987992598148 352.20834195165946 384.44180879913836 373.93182740282447 383.1383996720685C395.65531285398947 381.83499054499856 404.3447070344555 447.3638844084378 426.0681924856205 441.00976491397205C447.7916779367855 434.65564541950624 456.4810721172515 352.6386260986328 478.2045575684165 352.6386260986328C499.9280430195814 352.6386260986328 508.61743720004745 438.07709437806477 530.3409226512124 441.00976491397205C552.0644081023775 443.94243544987927 560.7538022828435 367.69300151629017 582.4772877340085 366.7154446709877C604.2007731851735 365.73788782568533 612.8901673656396 437.62090118359026 634.6136528168045 436.3174920565204C656.3371382679694 435.01408292945047 675.8882751740178 376.26291652677475 686.7500178996005 360.4590808610522 " transform="rotate(93, 400, 400)"></path><path d="M122.50000192468822 416.22550498432764C133.0113658526713 408.9726638740193 151.93182092304082 382.83090178512543 172.95454877900693 381.4118676548477C193.97727663497307 379.99283352457 202.3863677773595 411.77919804279077 223.40909563332565 409.4141411589946C244.43182348929173 407.0490842751984 252.84091463167823 362.4914125844782 273.86364248764437 370.05959461262603C294.88637034361045 377.62777664077385 303.29546148599695 442.90334663354867 324.3181893419631 445.7414148941041C345.34091719792923 448.5794831546595 353.7500083403156 384.94368593465003 374.77273619628176 383.68232226329206C395.79546405224784 382.4209585919341 404.20455519463434 445.8360171694559 425.2272830506005 439.6868692715858C446.2500109065666 433.5377213737157 454.65910204895306 354.1664123535156 475.6818299049192 354.1664123535156C496.7045577608852 354.1664123535156 505.1136489032717 436.8488010110304 526.1363767592379 439.6868692715858C547.159104615204 442.5249375321413 555.5681957575905 368.73516275770015 576.5909236135567 367.78914000418166C597.6136514695228 366.8431172506632 606.0227426119092 436.4073237260551 627.0454704678752 435.1459600546971C648.0681983238413 433.88459638333916 666.9886533942108 377.0286288968788 677.500017322194 361.73459438166344 " transform="rotate(90, 400, 400)"></path><path d="M131.75000186053194 415.6846548181834C141.91098699091557 408.6735750782187 160.20076022560613 383.4032050589546 180.52273048637335 382.0314720663528C200.84470074714062 380.659739073751 208.97348885144754 411.38655810803107 229.29545911221476 409.1003364536948C249.61742937298203 406.81411479935844 257.74621747728895 363.7416988316623 278.06818773805617 371.0576081255385C298.3901579988235 378.37351741941467 306.51894610313036 441.473235079097 326.8409163638976 444.2167010643006C347.1628866246649 446.9601670495042 355.29167472897177 385.4455630701617 375.613644989739 384.22624485451564C395.93561525050626 383.00692663886963 404.0644033548132 444.30814993047403 424.38637361558045 438.3639736291996C444.70834387634767 432.4197973279252 452.83713198065465 355.69419860839844 473.15910224142186 355.69419860839844C493.48107250218914 355.69419860839844 501.60986060649594 435.62050764399606 521.9318308672632 438.3639736291996C542.2538011280305 441.10743961440323 550.3825892323374 369.77732399911014 570.7045594931046 368.8628353373756C591.026529753872 367.9483466756411 599.1553178581789 435.19374626851993 619.4772881189461 433.9744280528739C639.7992583797134 432.7551098372279 658.0890316144039 377.7943412669828 668.2500167447876 363.0101079022746 " transform="rotate(87, 400, 400)"></path><path d="M141.00000179637567 415.14380465203914C150.81060812915985 408.374486282418 168.46969952817142 383.97550833278376 188.0909121937398 382.6510764778579C207.71212485930818 381.326644622932 215.56060992553554 410.9939181732714 235.18182259110392 408.78653174839496C254.8030352566723 406.5791453235185 262.65152032289967 364.9919850788463 282.2727329884681 372.05562163845093C301.89394565403643 379.11925819805555 309.74243072026377 440.0431235246454 329.36364338583223 442.6919872344971C348.9848560514006 445.34085094434886 356.8333411176279 385.9474402056734 376.4545537831963 384.7701674457393C396.0757664487646 383.59289468580516 403.9242515149921 442.7802826914922 423.54546418056043 437.04107798681343C443.1666768461288 431.3018732821347 451.0151619123562 357.22198486328125 470.6363745779246 357.22198486328125C490.2575872434929 357.22198486328125 498.1060723097203 434.3922142769617 517.7272849752887 437.04107798681343C537.3484976408571 439.6899416966652 545.1969827070843 370.8194852405201 564.8181953726528 369.93653067056954C584.4394080382212 369.053576100619 592.2878931044486 433.98016881098476 611.9091057700169 432.80289605105065C631.5303184355853 431.62562329111654 649.1894098345969 378.56005363708687 659.0000161673811 364.28562142288587 " transform="rotate(84, 400, 400)"></path><path d="M150.24998647343034 414.6029544858949C159.71021400861508 408.07539748661736 176.73862357194767 384.54781160661287 195.65907864231718 383.27068088936295C214.57953371268667 381.99355017211303 222.14771574083449 410.6012782385117 241.068170811204 408.4727270430951C259.9886258815735 406.34417584767857 267.55680790972133 366.2422713260304 286.47726298009087 373.05363515136344C305.39771805046036 379.8649989766964 312.96590007860823 438.6130119701938 331.8863551489777 441.1672734046937C350.8068102193472 443.72153483919357 358.374992247495 386.449317341185 377.2954473178645 385.31409003696285C396.215902388234 384.1788627327407 403.7840844163818 441.2524154525103 422.70453948675134 435.71818234442725C441.62499455712083 430.1839492363442 449.1931765852687 358.74977111816406 468.1136316556382 358.74977111816406C487.0340867260077 358.74977111816406 494.60226875415543 433.16392090992736 513.522723824525 435.71818234442725C532.4431788948946 438.27244377892714 540.0113609230423 371.86164648193017 558.9318159934119 371.0102260037635C577.8522710637815 370.1588055255969 585.4204530919292 432.7665913534496 604.3409081622987 431.63136404922744C623.2613632326681 430.4961367450053 640.2897727960008 379.3257660071909 649.7500003311854 365.5611349434971 " transform="rotate(81, 400, 400)"></path><path d="M159.49998640927407 414.06210431975063C168.60983514685938 407.77630869081673 185.00756287451298 385.12011488044203 203.2272603496836 383.890285300868C221.44695782485425 382.660455721294 228.73483681492252 410.208638303752 246.95453429009314 408.15892233779533C265.1742317652638 406.10920637183864 272.46211075533205 367.49255757321447 290.6818082305027 374.0516486642759C308.90150570567334 380.6107397553373 316.18938469574164 437.18290041574215 334.40908217091226 439.6425595748902C352.6287796460829 442.1022187340382 359.91665863615117 386.9511944766967 378.1363561113218 385.85801262818643C396.3560535864924 384.76483077967623 403.6439325765607 439.72454821352846 421.8636300517314 434.39528670204106C440.083327526902 429.06602519055366 447.3712065169703 360.2775573730469 465.5909039921409 360.2775573730469C483.8106014673115 360.2775573730469 491.09848045737976 431.93562754289303 509.31817793255044 434.39528670204106C527.537875407721 436.8549458611891 534.8257543977893 372.90380772334015 553.04545187296 372.0839213369575C571.2651493481306 371.2640349505748 578.5530283381988 431.55301389591443 596.7727258133696 430.4598320474042C614.9924232885401 429.366650198894 631.3901510161937 380.09147837729495 640.4999997537791 366.8366484641083 " transform="rotate(78, 400, 400)"></path><path d="M168.7499863451178 413.5212541536064C177.50945628510368 407.4772198950161 193.27650217707827 385.6924181542712 210.79544205705005 384.5098897123731C228.3143819370218 383.327361270475 235.32195788901055 409.8159983689923 252.8408977689823 407.8451176324955C270.35983764895406 405.8742368959987 277.36741360094277 368.7428438203985 294.8863534809146 375.04966217718834C312.40529336088633 381.3564805339782 319.41286931287505 435.7527888612905 336.9318091928468 438.1178457450867C354.4507490728186 440.4829026288829 361.4583250248073 387.45307161220836 378.9772649047791 386.40193521941006C396.49620478475083 385.35079882661176 403.50378073673954 438.1966809745466 421.02272061671135 433.0723910596548C438.5416604966831 427.9481011447631 445.5492364486718 361.8053436279297 463.0681763286436 361.8053436279297C480.5871162086153 361.8053436279297 487.594692160604 430.70733417585865 505.1136320405758 433.0723910596548C522.6325719205477 435.43744794345105 529.6401478725363 373.94596896475014 547.1590877525082 373.1576166701514C564.6780276324799 372.3692643755527 571.6856035844687 430.33943643837927 589.2045434644403 429.28830004558097C606.7234833444121 428.23716365278267 622.4905292363867 380.857190747399 631.2499991763725 368.11216198471953 " transform="rotate(75, 400, 400)"></path><path d="M177.99998628096154 412.9804039874621C186.40907742334798 407.1781310992154 201.54544147964359 386.26472142810036 218.36362376441647 385.1294941238782C235.1818060491894 383.994266819656 241.90907896309855 409.4233584342326 258.7272612478714 407.5313129271957C275.54544353264436 405.6392674201587 282.2727164465535 369.99313006758257 299.09089873132643 376.04767569010085C315.9090810160993 382.10222131261906 322.63635393000845 434.3226773068389 339.4545362147814 436.59313191528327C356.2727184995543 438.8635865237276 362.9999914134634 387.95494874772004 379.81817369823636 386.94585781063364C396.63635598300925 385.9367668735473 403.3636288969184 436.66881373556475 420.1818111816913 431.7494954172687C436.9999934664642 426.83017709897257 443.7272663803734 363.3331298828125 460.5454486651463 363.3331298828125C477.3636309499191 363.3331298828125 484.0909038638283 429.4790408088243 500.9090861486012 431.7494954172687C517.7272684333741 434.019950025713 524.4545413472833 374.9881302061601 541.2727236320563 374.23131200334535C558.0909059168291 373.4744938005306 564.8181788307384 429.1258589808441 581.6363611155111 428.1167680437577C598.454543400284 427.10767710667136 613.5909074565797 381.62290311750303 621.9999985989662 369.3876755053308 " transform="rotate(72, 400, 400)"></path><path d="M187.24998621680524 412.4395538213179C195.30869856159225 406.8790423034148 209.8143807822089 386.8370247019295 225.93180547178292 385.74909853538327C242.04923016135695 384.661172368837 248.49620003718655 409.0307184994729 264.6136247267606 407.21750822189586C280.7310494163346 405.4042979443188 287.17801929216427 371.24341631476665 303.2954439817383 377.0456892030133C319.41286867131225 382.84796209125994 325.8598385471419 432.8925657523873 341.97726323671594 435.0684180854798C358.09468792629 437.2442704185723 364.5416578021196 388.45682588323166 380.6590824916936 387.4897804018573C396.7765071812676 386.52273492048283 403.2234770570973 435.14094649658284 419.3409017466713 430.42659977488245C435.45832643624533 425.71225305318205 441.90529631207494 364.8609161376953 458.02272100164896 364.8609161376953C474.140145691223 364.8609161376953 480.5871155670526 428.25074744178994 496.7045402566266 430.42659977488245C512.8219649462008 432.60245210797495 519.2689348220302 376.0302914475701 535.3863595116043 375.3050073365393C551.5037842011784 374.5797232255085 557.950754077008 427.91228152330893 574.068178766582 426.9452360419345C590.185603456156 425.97819056056005 604.6912856767726 382.38861548760707 612.7499980215596 370.66318902594196 " transform="rotate(69, 400, 400)"></path><path d="M196.49998615264897 411.89870365517356C204.20831969983655 406.57995350761416 218.0833200847742 387.40932797575863 233.49998717914934 386.36870294688833C248.9166542735245 385.32807791801804 255.08332111127459 408.6380785647133 270.49998820564974 406.90370351659607C285.9166553000249 405.16932846847885 292.083322137775 372.49370256195067 307.49998923215014 378.04370271592575C322.9166563265253 383.5937028699008 329.0833231642754 431.4624541979357 344.49999025865054 433.5437042556763C359.9166573530257 435.624954313417 366.0833241907757 388.95870301874334 381.4999912851509 388.03370299308085C396.91665837952604 387.10870296741837 403.08332521727607 433.613079257601 418.4999923116513 429.10370413249626C433.91665940602644 424.59432900739154 440.08332624377647 366.3887023925781 455.4999933381517 366.3887023925781C470.9166604325268 366.3887023925781 477.08332727027687 427.0224540747556 492.499994364652 429.10370413249626C507.9166614590272 431.1849541902369 514.0833282967773 377.0724526889801 529.4999953911524 376.37870266973323C544.9166624855277 375.68495265048637 551.0833293232777 426.69870406577377 566.4999964176528 425.7737040401112C581.916663512028 424.84870401444874 595.7916638969656 383.1543278577111 603.4999974441532 371.9387025465532 " transform="rotate(66, 400, 400)"></path><path d="M205.74998608849268 411.35785348902937C213.10794083808082 406.28086471181354 226.3522593873395 387.9816312495878 241.0681688865158 386.9883073583934C255.78407838569208 385.994983467199 261.6704421853626 408.2454386299535 276.3863516845389 406.5898988112962C291.10226118371514 404.93435899263886 296.9886249833857 373.74398880913475 311.704534482562 379.0417162288382C326.4204439817383 384.33944364854165 332.3068077814088 430.03234264348407 347.0227172805851 432.01899042587286C361.7386267797614 434.00563820826164 367.6249905794319 389.460580154255 382.3409000786082 388.5776255843044C397.0568095777844 387.69467101435384 402.94317337745497 432.08521201861913 417.65908287663126 427.7808084901101C432.37499237580755 423.476404961601 438.26135617547806 367.91648864746094 452.9772656746544 367.91648864746094C467.69317517383064 367.91648864746094 473.57953897350114 425.7941607077213 488.29544847267744 427.7808084901101C503.0113579718537 429.76745627249886 508.89772177152423 378.1146139303901 523.6136312707006 377.45239800292717C538.3295407698769 376.79018207546426 544.2159045695473 425.4851266082386 558.9318140687237 424.602172038288C573.6477235678999 423.71921746833743 586.8920421171586 383.92004022781515 594.2499968667466 373.2142160671644 " transform="rotate(63, 400, 400)"></path><path d="M214.9999860243364 410.81700332288506C222.00756197632512 405.98177591601285 234.62119868990482 388.55393452341696 248.6363505938822 387.60791176989846C262.6515024978596 386.66188901638003 268.25756325945065 407.8527986951939 282.272715163428 406.27609410599644C296.28786706740544 404.69938951679893 301.8939278289964 374.9942750563188 315.90907973297385 380.03972974175065C329.9242316369513 385.0851844271825 335.53029239854226 428.60223108903244 349.5454443025196 430.49427659606937C363.56059620649705 432.38632210310635 369.166656968088 389.9624572897667 383.1818088720654 389.12154817552806C397.19696077604283 388.2806390612894 402.80302153763387 430.5573447796373 416.8181734416113 426.4579128477239C430.8333253455886 422.3584809158105 436.43938610717964 369.44427490234375 450.45453801115707 369.44427490234375C464.46968991513444 369.44427490234375 470.0757506767254 424.5658673406869 484.09090258070285 426.4579128477239C498.1060544846803 428.3499583547608 503.71211524627125 379.1567751718001 517.7272671502487 378.5260933361211C531.7424190542262 377.89541150044215 537.3484798158171 424.2715491507034 551.3636317197945 423.43064003646475C565.3787836237718 422.5897309222261 577.9924203373516 384.6857525979192 584.9999962893403 374.4897295877756 " transform="rotate(60, 400, 400)"></path><path d="M224.24998596018014 410.27615315674086C230.90718311456942 405.6826871202122 242.8901379924701 389.1262377972461 256.20453230124866 388.22751618140353C269.51892661002717 387.328794565561 274.8446843335386 407.4601587604342 288.1590786423172 405.9622894006966C301.4734729510957 404.464420040959 306.79923067460714 376.24456130350285 320.1136249833857 381.03774325466316C333.42801929216427 385.8309252058234 338.75377701567567 427.1721195345808 352.0681713244542 428.96956276626594C365.38256563323273 430.767005997951 370.70832335674413 390.46433442527837 384.0227176655227 389.66547076675164C397.33711197430125 388.8666071082249 402.66286969781265 429.0294775406554 415.9772640065912 425.1350172053377C429.2916583153698 421.24055687002 434.6174160388812 370.97206115722656 447.93181034765973 370.97206115722656C461.24620465643824 370.97206115722656 466.5719623799497 423.3375739736526 479.88635668872826 425.1350172053377C493.2007509975068 426.93246043702277 498.5265087210182 380.1989364132101 511.84090302979683 379.59978866931505C525.1552973385753 379.00064092542004 530.4810550620869 423.0579716931682 543.7954493708653 422.25910803464154C557.1098436796437 421.4602443761148 569.0927985575445 385.45146496802323 575.7499957119337 375.7652431083868 " transform="rotate(57, 400, 400)"></path><path d="M233.49998589602387 409.73530299059655C239.80680425281372 405.3835983244116 251.15907729503542 389.6985410710753 263.7727140086151 388.84712059290865C276.3863507221948 387.995700114742 281.43180540762665 407.0675188256745 294.0454421212063 405.64848469539675C306.659078834786 404.22945056511907 311.70453352021786 377.4948475506869 324.31817023379756 382.0357567675756C336.9318069473772 386.5766659844643 341.97726163280913 425.7420079801292 354.59089834638877 427.44484893646245C367.20453505996846 429.1476898927957 372.2499897454003 390.96621156079004 384.86362645898 390.2093933579752C397.4772631725597 389.45257515516045 402.52271785799155 427.50161030167357 415.13635457157125 423.8121215629515C427.7499912851509 420.1226328242294 432.7954459705828 372.4998474121094 445.4090826841624 372.4998474121094C458.0227193977421 372.4998474121094 463.068174083174 422.10928060661826 475.68181079675367 423.8121215629515C488.29544751033336 425.5149625192847 493.3409021957652 381.2410976546201 505.95453890934493 380.673484002509C518.5681756229246 380.10587035039794 523.6136303083565 421.84439423563305 536.2272670219361 421.0875760328183C548.8409037355158 420.3307578300035 560.1931767777376 386.21717733812727 566.4999951345274 377.04075662899805 " transform="rotate(54, 400, 400)"></path><path d="M242.7499858318676 409.19445282445236C248.706425391058 405.08450952861097 259.42801659760073 390.2708443449044 271.34089571598156 389.4667250044137C283.25377483436233 388.662605663923 288.01892648171463 406.6748788909148 299.93180560009546 405.33467999009696C311.8446847184763 403.9944810892791 316.6098363658286 378.745133797871 328.5227154842094 383.03377028048806C340.4355946025902 387.32240676310516 345.20074624994254 424.31189642567756 357.11362536832337 425.92013510665896C369.02650448670414 427.52837378764036 373.79165613405644 391.46808869630166 385.70453525243727 390.75331594919885C397.6174143708181 390.038543202096 402.3825660181704 425.9737430626917 414.29544513655117 422.4892259205653C426.208324254932 419.0047087784389 430.97347590228435 374.0276336669922 442.8863550206652 374.0276336669922C454.7992341390459 374.0276336669922 459.56438578639825 420.8809872395839 471.4772649047791 422.4892259205653C483.3901440231599 424.09746460154673 488.1552956705122 382.2832588960301 500.06817478889303 381.747179335703C511.98105390727386 381.2110997753758 516.7462055546262 420.6308167780979 528.6590846730069 419.91604403099507C540.5719637913877 419.2012712838922 551.2935549979304 386.9828897082313 557.2499945571208 378.3162701496093 " transform="rotate(51, 400, 400)"></path><path d="M251.99998576771134 408.65360265830805C257.60604652930226 404.7854207328103 267.696955900166 390.84314761873355 278.909077423348 390.0863294159188C290.1211989465299 389.329511213104 294.60604755580266 406.2822389561551 305.8181690789846 405.0208752847971C317.03029060216653 403.75951161343914 321.5151392114393 379.995420045055 332.72726073462127 384.03178379340056C343.9393822578032 388.06814754174604 348.42423086707595 422.88178487122593 359.6363523902579 424.3954212768555C370.8484739134399 425.90905768248507 375.3333225227126 391.96996583181334 386.54544404589456 391.2972385404224C397.75756556907646 390.6245112490315 402.24241417834924 424.4458758237098 413.4545357015312 421.1663302781791C424.66665722471316 417.8867847326484 429.1515058339859 375.555419921875 440.36362735716784 375.555419921875C451.57574888034975 375.555419921875 456.0605974896225 419.65269387254955 467.2727190128045 421.1663302781791C478.48484053598645 422.6799666838087 482.96968914525917 383.32542013744006 494.18181066844113 382.82087466889686C505.3939321916231 382.3163292003537 509.87878080089587 419.4172393205627 521.0909023240778 418.7445120291718C532.3030238472597 418.0717847377809 542.3939332181234 387.74860207833535 547.9999939797144 379.5917836702205 " transform="rotate(48, 400, 400)"></path><path d="M261.24998570355507 408.1127524921638C266.50566766754656 404.48633193700965 275.96589520273136 391.4154508925627 286.4772591307144 390.70593382742385C296.9886230586975 389.996416762285 301.1931686298907 405.8895990213954 311.7045325578738 404.7070705794973C322.2158964858568 403.5245421375992 326.4204420570501 381.2457062922391 336.9318059850331 385.029797306313C347.44316991301616 388.8138883203869 351.6477154842094 421.4516733167743 362.15907941219245 422.87070744705204C372.67044334017555 424.2897415773298 376.87498891136875 392.471842967325 387.38635283935184 391.841161131646C397.8977167673348 391.21047929596705 402.10226233852813 422.91800858472794 412.6136262665112 419.8434346357929C423.1249901944942 416.76886068685786 427.32953576568747 377.0832061767578 437.8408996936705 377.0832061767578C448.35226362165355 377.0832061767578 452.5568091928468 418.4244005055152 463.0681731208299 419.8434346357929C473.57953704881294 421.26246876607064 477.7840826200062 384.3675813788501 488.2954465479893 383.89457000209086C498.8068104759723 383.4215586253316 503.0113560471655 418.20366186302755 513.5227199751486 417.5729800273486C524.0340839031317 416.9422981916696 533.4943114383163 388.5143144484394 538.749993402308 380.8672971908317 " transform="rotate(45, 400, 400)"></path><path d="M270.4999856393988 407.57190232601954C275.40528880579086 404.187243141209 284.23483450529665 391.9877541663919 294.0454408380808 391.3255382389289C303.85604717086505 390.663322311466 307.7802897039787 405.4969590866357 317.5908960367629 404.3932658741975C327.4015023695471 403.2895726617593 331.32574490266074 382.4959925394232 341.136351235445 386.02781081922546C350.94695756822915 389.5596290990278 354.8712001013428 420.0215617623227 364.68180643412705 421.34599361724855C374.49241276691123 422.67042547217443 378.4166553000249 392.9737201028367 388.2272616328091 392.38508372286964C398.03786796559325 391.7964473429026 401.962110498707 421.3901413457461 411.77271683149115 418.5205389934067C421.5833231642753 415.65093664106735 425.50756569738905 378.6109924316406 435.31817203017323 378.6109924316406C445.1287783629574 378.6109924316406 449.0530208960711 417.19610713848084 458.8636272288553 418.5205389934067C468.6742335616395 419.8449708483326 472.5984760947531 385.4097426202601 482.4090824275373 384.9682653352848C492.21968876032156 384.5267880503095 496.14393129343523 416.9900844054924 505.9545376262194 416.4014480255253C515.7651439590036 415.81281164555827 524.5946896585094 389.28002681854343 529.4999928249015 382.14281071144296 " transform="rotate(42, 400, 400)"></path><path d="M279.75000083403154 407.0310521598753C284.3049252028242 403.88815434540834 292.50378906665105 392.56005744022104 301.6136378042363 391.94514265043404C310.72348654182167 391.330227860647 314.3674260368558 405.104319151876 323.47727477444107 404.07946116889764C332.58712351202644 403.0546031859193 336.2310630070606 383.7462787866072 345.3409117446459 387.025824332138C354.4507604822312 390.3053698776687 358.09469997726535 418.59145020787105 367.20454871485066 419.82127978744506C376.31439745243597 421.0511093670191 379.9583369474701 393.4755972383483 389.0681856850554 392.9290063140932C398.17803442264074 392.3824153898381 401.8219739176749 419.86227410676423 410.93182265526025 417.19764335102053C420.0416713928455 414.53301259527683 423.68561088787965 380.13877868652344 432.795459625465 380.13877868652344C441.90530836305027 380.13877868652344 445.5492478580844 415.9678137714465 454.6590965956698 417.19764335102053C463.76894533325503 418.42747293059455 467.4128848282892 386.4519038616701 476.52273356587455 386.04196066847874C485.63258230345986 385.6320174752874 489.27652179849395 415.7765069479572 498.3863705360793 415.2299160237021C507.49621927366456 414.68332509944696 515.6950831374913 390.0457391886475 520.2500075062841 383.41832423205415 " transform="rotate(39, 400, 400)"></path><path d="M289.00000076987527 406.49020199373103C293.2045463410685 403.5890655496077 300.77272836921634 393.13236071405015 309.1818195116028 392.5647470619391C317.5909106539892 391.997133409828 320.9545471109438 404.71167921711634 329.36363825333024 403.76565646359785C337.77272939571674 402.81963371007936 341.13636585267125 384.9965650337913 349.54545699505775 388.0238378450504C357.9545481374442 391.05111065630956 361.31818459439876 417.1613386534195 369.72727573678526 418.29656595764163C378.13636687917165 419.4317932618638 381.50000333612627 393.97747437386 389.9090944785127 393.47292890531685C398.31818562089916 392.96838343677365 401.6818220778537 418.3344068677824 410.09091322024017 415.87474770863435C418.50000436262667 413.4150885494863 421.86364081958124 381.66656494140625 430.2727319619677 381.66656494140625C438.68182310435407 381.66656494140625 442.0454595613087 414.73952040441213 450.45455070369513 415.87474770863435C458.8636418460816 417.0099750128565 462.2272783030362 387.49406510308006 470.6363694454227 387.1156560016727C479.0454605878091 386.7372469002653 482.4090970447637 414.56292949042205 490.8181881871501 414.05838402187885C499.22727932953654 413.55383855333565 506.79546135768436 390.8114515587515 511.0000069288776 384.6938377526654 " transform="rotate(36, 400, 400)"></path><path d="M298.250000705719 405.9493518275868C302.1041674793128 403.2899767538071 309.0416676717816 393.7046639878793 316.7500012189692 393.18435147344417C324.4583347661568 392.664038959009 327.5416681850318 404.31903928235664 335.2500017322194 403.451851758298C342.958335279407 402.5846642342394 346.041668698282 386.24685128097536 353.7500022454696 389.0218513579629C361.4583357926572 391.7968514349504 364.5416692115322 415.73122709896785 372.2500027587198 416.77185212783814C379.9583363059074 417.8124771567085 383.0416697247824 394.47935150937167 390.75000327196994 394.0168514965404C398.4583368191576 393.5543514837092 401.54167023803257 416.8065396288005 409.2500037852202 414.55185206624816C416.9583373324077 412.2971645036958 420.04167075128277 383.19435119628906 427.75000429847034 383.19435119628906C435.4583378456579 383.19435119628906 438.54167126453297 413.5112270373778 446.25000481172054 414.55185206624816C453.9583383589081 415.59247709511845 457.04167177778316 388.53622634449005 464.75000532497074 388.1893513348666C472.4583388721584 387.8424763252432 475.54167229103336 413.3493520328869 483.25000583822094 412.88685202005564C490.9583393854085 412.42435200722434 497.8958395778773 391.57716392885555 501.75000635147114 385.9693512732766 " transform="rotate(33, 400, 400)"></path><path d="M307.50000064156274 405.40850166144253C311.0037886175571 402.99088795800645 317.3106069743469 394.2769672617085 324.3181829263356 393.80395588494923C331.32575887832434 393.33094450819 334.12878925911986 403.92639934759694 341.13636521110857 403.1380470529982C348.1439411630972 402.3496947583995 350.94697154389274 387.4971375281594 357.95454749588146 390.0198648708753C364.96212344787017 392.54259221359126 367.7651538286657 414.3011155445162 374.77272978065434 415.2471382980347C381.78030573264306 416.19316105155315 384.5833361134385 394.98122864488334 391.59091206542723 394.560774087764C398.59848801741595 394.1403195306447 401.40151839821146 415.27867238981867 408.4090943502002 413.228956423862C415.41667030218883 411.1792404579052 418.21970068298435 384.7221374511719 425.22727663497307 384.7221374511719C432.2348525869618 384.7221374511719 435.03788296775724 412.2829336703435 442.04545891974595 413.228956423862C449.05303487173467 414.1749791773804 451.85606525253013 389.57838758590003 458.8636412045189 389.26304666806055C465.8712171565076 388.9477057502211 468.6742475373031 412.1357745753517 475.6818234892918 411.7153200182324C482.68939944128044 411.2948654611131 488.99621779807035 392.3428762989596 492.5000057740647 387.2448647938878 " transform="rotate(30, 400, 400)"></path><path d="M316.75000057740647 404.8676524489726C319.90340975580136 402.6918001158801 325.57954627691225 394.84927148921196 331.8863646337021 394.4235612501286C338.1931829904919 393.9978510110453 340.71591033320783 403.53376036651156 347.0227286899977 402.8242433013727C353.3295470467875 402.1147262362338 355.85227438950346 388.7474247290178 362.1590927462933 391.0178793374621C368.46591110308316 393.28833394590646 370.9886384457991 412.8710049437389 377.2954568025889 413.72242542190554C383.6022751593788 414.5738459000722 386.1250025020947 395.48310673406934 392.4318208588845 395.10469763266195C398.73863921567437 394.72628853125457 401.2613665583903 413.75080610451107 407.56818491518015 411.90606173515005C413.87500327196994 410.061317365789 416.39773061468594 386.249924659729 422.70454897147573 386.249924659729C429.0113673282656 386.249924659729 431.5340946709815 411.0546412569834 437.84091302777136 411.90606173515005C444.1477313845612 412.7574822133167 446.67045872727715 390.62054978098433 452.977277084067 390.3367429549288C459.28409544085685 390.0529361288733 461.8068227835728 410.92219807149087 468.1136411403626 410.5437889700835C474.4204594971524 410.16537986867604 480.0965960182633 393.10858962273795 483.2500051966582 388.5203792681733 " transform="rotate(27, 400, 400)"></path><path d="M326.0000005132502 404.326801329154C328.80303089404566 402.39271036640514 333.84848557947754 395.4215738093668 339.4545463410685 395.04316470795936C345.06060710265945 394.66475560655203 347.30303140729586 403.14111947807754 352.90909216888684 402.51043764239853C358.5151529304778 401.8797558067196 360.7575772351142 389.99771002252754 366.36363799670517 392.0158918967003C371.9696987582961 394.034073770873 374.2121230629325 411.44089243561297 379.8181838245235 412.19771063842774C385.42424458611447 412.9545288412425 387.6666688907508 395.9849829159067 393.2727296523418 395.6486192702112C398.87879041393273 395.3122556245157 401.12121471856915 412.2229379118549 406.72727548016013 410.58316513908954C412.3333362417511 408.9433923663242 414.57576054638747 387.7777099609375 420.18182130797845 387.7777099609375C425.7878820695694 387.7777099609375 428.0303063742058 409.8263469362748 433.6363671357968 410.58316513908954C439.24242789738776 411.3399833419043 441.4848522020241 391.66271006872006 447.0909129636151 391.41043733444843C452.6969737252061 391.15816460017686 454.93939802984244 409.7086196602814 460.5454587914334 409.3722560145859C466.1515195530244 409.0358923688905 471.1969742384562 393.8743010391677 474.00000461925174 389.79589183511024 " transform="rotate(24, 400, 400)"></path><path d="M335.25000044909393 403.78595116300977C337.70265203228996 402.0936215706045 342.1174248820429 395.9938770831959 347.02272804843494 395.6627691194645C351.92803121482706 395.331661155733 353.8901524813839 402.74847954331784 358.79545564777595 402.19663293709874C363.70075881416807 401.64478633087964 365.6628800807249 391.24799626971156 370.568183247117 393.01390540961273C375.47348641350914 394.7798145495139 377.4356076800659 410.01078088116134 382.3409108464581 410.6729968086243C387.24621401285015 411.3352127360872 389.208335279407 396.4868600514183 394.1136384457991 396.19254186143485C399.01894161219116 395.8982236714513 400.98106287874805 410.69507067287304 405.8863660451401 409.26026949670336C410.79166921153217 407.8254683205337 412.75379047808906 389.3054962158203 417.6590936444811 389.3054962158203C422.56439681087323 389.3054962158203 424.52651807743007 408.59805356924045 429.4318212438222 409.26026949670336C434.3371244102143 409.92248542416627 436.2992456767711 392.70487131013005 441.2045488431632 392.48413266764237C446.1098520095553 392.26339402515475 448.07197327611215 408.49504220274616 452.97727644250426 408.20072401276263C457.8825796088963 407.90640582277916 462.29735245864924 394.6400134092717 464.7500040418453 391.0714053557215 " transform="rotate(21, 400, 400)"></path><path d="M344.4999965702404 403.2451009968655C346.602269355837 401.7945327748039 350.3863603699109 396.5661803570251 354.5909059411041 396.28237353096955C358.79545151229735 395.998566704914 360.47726974077466 402.35583960855814 364.68181531196785 401.88282823179895C368.8863608831611 401.4098168550397 370.56817911163836 392.49828251689564 374.7727246828316 394.0119189225252C378.9772702540248 395.5255553281548 380.6590884825021 408.5806693267097 384.86363405369536 409.1482829788208C389.06817962488856 409.7158966309319 390.74999785336587 396.98873718693 394.9545434245591 396.7364644526584C399.1590889957523 396.4841917183868 400.84090722422957 409.1672034338912 405.0454527954228 407.9373738543172C409.24999836661607 406.70754427474316 410.9318165950933 390.8332824707031 415.1363621662866 390.8332824707031C419.34090773747977 390.8332824707031 421.0227259659571 407.36976020220607 425.2272715371503 407.9373738543172C429.4318171083435 408.5049875064283 431.11363533682083 393.74703255154003 435.3181809080141 393.55782800083637C439.5227264792073 393.36862345013265 441.2045447076846 407.281464745211 445.4090902788778 407.0291920109394C449.613635850071 406.77691927666785 453.39772686414494 395.40572577937576 455.49999964974154 392.34691887633267 " transform="rotate(18, 400, 400)"></path><path d="M353.74999650608413 402.70425083072126C355.5018904940813 401.4954439790032 358.6552996724762 397.13848363085424 362.1590876484706 396.9019779424746C365.6628756244649 396.665472254095 367.06439081486263 401.96319967379844 370.568178790857 401.5690235264991C374.07196676685135 401.1748473791997 375.4734819572491 393.7485687640797 378.97726993324346 395.0099324354377C382.48105790923785 396.27129610679566 383.8825730996356 407.15055777225814 387.3863610756299 407.6235691490173C390.89014905162423 408.0965805257766 392.29166424202197 397.4906143224417 395.79545221801635 397.280387043882C399.29924019401074 397.07015976532233 400.70075538440847 407.63933619490933 404.2045433604028 406.614478211931C407.7083313363971 405.58962022895264 409.1098465267949 392.36106872558594 412.6136345027893 392.36106872558594C416.1174224787836 392.36106872558594 417.51893766918135 406.14146683517174 421.0227256451757 406.614478211931C424.52651362117007 407.08748958869023 425.9280288115678 394.78919379295 429.4318167875622 394.63152333403025C432.9356047635565 394.47385287511054 434.33711995395424 406.06788728767583 437.8409079299486 405.8576600091162C441.34469590594296 405.64743273055655 444.4981050843379 396.1714381494798 446.2499990723351 393.6224323969439 " transform="rotate(15, 400, 400)"></path><path d="M362.9999964419278 402.163400664577C364.40151163232554 401.19635518320257 366.9242389750415 397.7107869046834 369.727269355837 397.5215823539797C372.53029973663246 397.332377803276 373.65151188895067 401.5705597390388 376.4545422697462 401.25521882119926C379.25757265054165 400.9398779033598 380.37878480285985 394.99885501126374 383.1818151836553 396.00794594835014C385.9848455644508 397.0170368854365 387.106057716769 405.7204462178065 389.90908809756445 406.0988553192139C392.71211847835997 406.4772644206213 393.8333306306781 397.99249145795335 396.63636101147364 397.8243096351056C399.4393913922691 397.65612781225786 400.5606035445873 406.1114689559275 403.3636339253828 405.2915825695448C406.1666643061783 404.47169618316207 407.2878764584965 393.88885498046875 410.09090683929196 393.88885498046875C412.8939372200874 393.88885498046875 414.01514937240563 404.9131734681374 416.8181797532011 405.2915825695448C419.6212101339966 405.6699916709522 420.74242228631476 395.83135503436 423.5454526671103 395.70521866722424C426.3484830479058 395.57908230008843 427.46969520022395 404.85430983014066 430.2727255810195 404.68612800729295C433.07575596181493 404.51794618444524 435.5984833045309 396.93715051958384 436.9999984949286 394.89794591755515 " transform="rotate(12, 400, 400)"></path><path d="M372.2500001924688 401.62255049843276C373.30113658526716 400.89726638740194 375.1931820923041 398.28309017851257 377.2954548779007 398.1411867654848C379.39772766349734 397.999283352457 380.23863677773596 401.1779198042791 382.34090956333256 400.9414141158995C384.44318234892916 400.70490842751985 385.28409146316784 396.2491412584478 387.38636424876444 397.0059594612626C389.48863703436103 397.76277766407736 390.32954614859966 404.2903346633549 392.4318189341963 404.5741414894104C394.5340917197929 404.85794831546593 395.37500083403154 398.494368593465 397.4772736196282 398.3682322263292C399.5795464052248 398.2420958591934 400.4204555194634 404.5836017169456 402.52272830506 403.9686869271586C404.62500109065667 403.35377213737155 405.4659102048953 395.41664123535156 407.5681829904919 395.41664123535156C409.6704557760885 395.41664123535156 410.5113648903272 403.68488010110303 412.61363767592377 403.9686869271586C414.71591046152037 404.25249375321414 415.55681957575905 396.87351627577004 417.65909236135565 396.7789140004182C419.76136514695224 396.6843117250663 420.6022742611909 403.6407323726055 422.7045470467875 403.5145960054697C424.8068198323841 403.3884596383339 426.6988653394211 397.7028628896879 427.7500017322194 396.17345943816633 " transform="rotate(9, 400, 400)"></path><path d="M381.50000012831254 401.0817003322885C382.2007577235114 400.59817759160126 383.46212139486937 398.8553934523417 384.86363658526716 398.76079117698987C386.2651517756649 398.666188901638 386.82575785182394 400.7852798695194 388.2272730422217 400.62760941059963C389.62878823261946 400.46993895167986 390.18939430877856 397.4994275056319 391.5909094991763 398.0039729741751C392.992424689574 398.50851844271824 393.5530307657331 402.86022310890326 394.95454595613086 403.0494276596069C396.35606114652865 403.23863221031064 396.9166672226877 398.99624572897665 398.3181824130854 398.9121548175528C399.71969760348316 398.82806390612893 400.2803036796423 403.0557344779637 401.68181887004005 402.6457912847724C403.0833340604378 402.23584809158103 403.6439401365969 396.9444274902344 405.0454553269946 396.9444274902344C406.44697051739234 396.9444274902344 407.00757659355145 402.4565867340687 408.4090917839492 402.6457912847724C409.8106069743469 402.8349958354761 410.371213050506 397.91567751718003 411.7727282409038 397.8526093336121C413.17424343130153 397.7895411500442 413.7348495074606 402.42715491507033 415.13636469785837 402.3430640036465C416.5378798882561 402.2589730922226 417.79924355961407 398.4685752597919 418.50000115481294 397.4489729587776 " transform="rotate(6, 400, 400)"></path><path d="M390.75000006415627 400.54085016614425C391.1003788617557 400.2990887958006 391.7310606974347 399.42769672617084 392.4318182926336 399.38039558849493C393.13257588783245 399.333094450819 393.41287892591197 400.3926399347597 394.11363652111083 400.31380470529984C394.8143941163097 400.23496947583993 395.0946971543893 398.7497137528159 395.79545474958815 399.00198648708755C396.496212344787 399.2542592213591 396.7765153828666 401.4301115544516 397.47727297806546 401.5247138298035C398.1780305732643 401.6193161051553 398.45833361134385 399.4981228644883 399.1590912065427 399.4560774087764C399.8598488017416 399.41403195306447 400.14015183982116 401.52786723898186 400.84090943502 401.3228956423862C401.5416670302189 401.1179240457905 401.82197006829847 398.4722137451172 402.52272766349734 398.4722137451172C403.2234852586962 398.4722137451172 403.5037882967757 401.2282933670343 404.2045458919746 401.3228956423862C404.90530348717346 401.41749791773805 405.18560652525304 398.95783875859 405.8863641204519 398.92630466680606C406.58712171565077 398.8947705750221 406.8674247537303 401.21357745753517 407.5681823489292 401.17153200182327C408.2689399441281 401.1294865461113 408.89962177980703 399.23428762989596 409.25000057740647 398.72448647938876 " transform="rotate(3, 400, 400)"></path></g></svg>